<svg width="37" height="37" viewBox="0 0 37 37" fill="none" xmlns="http://www.w3.org/2000/svg">
<path d="M0.92041 0.56543H36.457V19.7969L34.698 22.5521L36.457 25.0043V36.1905H0.92041V18.0611L2.01976 16.7937L0.92041 15.5814V0.56543Z" fill="black"/>
<path d="M7.81885 25.39V19.7969H13.7262L14.36 20.6252L15.0148 19.7969H36.457V25.0043C36.457 25.0043 35.8962 25.3844 35.2477 25.39H23.3747L22.6601 24.5083V25.39H20.3185V23.8849C20.3185 23.8849 19.9986 24.095 19.3071 24.095H18.5101V25.39H14.9646L14.3318 24.5439L13.6891 25.39H7.81885Z" fill="white"/>
<path d="M0.92041 15.5812L2.25254 12.4678H4.55633L5.31233 14.2118V12.4678H8.17614L8.62619 13.7283L9.0625 12.4678H21.9181V13.1015C21.9181 13.1015 22.5939 12.4678 23.7045 12.4678L27.8757 12.4824L28.6186 14.2036V12.4678H31.0152L31.6748 13.4564V12.4678H34.0934V18.0609H31.6748L31.0427 17.069V18.0609H27.5216L27.1675 17.1792H26.2209L25.8725 18.0609H23.4846C22.529 18.0609 21.9181 17.4401 21.9181 17.4401V18.0609H18.3177L17.6031 17.1792V18.0609H4.21503L3.86118 17.1792H2.9176L2.56625 18.0609H0.92041V15.5812Z" fill="white"/>
<path d="M2.72376 13.1575L0.927002 17.3454H2.09678L2.42831 16.5068H4.35561L4.68542 17.3454H5.88096L4.08593 13.1575H2.72376ZM3.38852 14.1321L3.97599 15.5976H2.79934L3.38852 14.1321Z" fill="black"/>
<path d="M6.00488 17.3447V13.1567L7.66721 13.1629L8.63407 15.863L9.57778 13.1567H11.2268V17.3447H10.1824V14.2588L9.07535 17.3447H8.15943L7.04927 14.2588V17.3447H6.00488Z" fill="black"/>
<path d="M11.9412 17.3447V13.1567H15.3492V14.0935H12.9965V14.8099H15.2942V15.6915H12.9965V16.4355H15.3492V17.3447H11.9412Z" fill="black"/>
<path d="M15.9539 13.1575V17.3454H16.9982V15.8576H17.438L18.6902 17.3454H19.9665L18.5923 15.8025C19.1563 15.7548 19.738 15.2695 19.738 14.5161C19.738 13.6349 19.048 13.1575 18.278 13.1575H15.9539ZM16.9982 14.0942H18.1921C18.4785 14.0942 18.6868 14.3188 18.6868 14.5351C18.6868 14.8133 18.4169 14.9759 18.2075 14.9759H16.9982V14.0942Z" fill="black"/>
<path d="M21.2309 17.3447H20.1646V13.1567H21.2309V17.3447Z" fill="black"/>
<path d="M23.7596 17.3447H23.5294C22.4157 17.3447 21.7395 16.4651 21.7395 15.2679C21.7395 14.0412 22.4081 13.1567 23.8145 13.1567H24.9689V14.1486H23.7723C23.2014 14.1486 22.7976 14.5953 22.7976 15.2783C22.7976 16.0893 23.2593 16.4299 23.9245 16.4299H24.1993L23.7596 17.3447Z" fill="black"/>
<path d="M26.0319 13.1575L24.2351 17.3454H25.4049L25.7364 16.5068H27.6637L27.9935 17.3454H29.1891L27.394 13.1575H26.0319ZM26.6966 14.1321L27.2841 15.5976H26.1074L26.6966 14.1321Z" fill="black"/>
<path d="M29.311 17.3447V13.1567H30.6388L32.3343 15.788V13.1567H33.3786V17.3447H32.0938L30.3554 14.6446V17.3447H29.311Z" fill="black"/>
<path d="M8.5332 24.6735V20.4856H11.9412V21.4224H9.58858V22.1387H11.8862V23.0204H9.58858V23.7643H11.9412V24.6735H8.5332Z" fill="black"/>
<path d="M25.2324 24.6735V20.4856H28.6404V21.4224H26.2878V22.1387H28.5745V23.0204H26.2878V23.7643H28.6404V24.6735H25.2324Z" fill="black"/>
<path d="M12.0734 24.6735L13.7328 22.6054L12.0339 20.4856H13.3497L14.3615 21.796L15.3767 20.4856H16.6409L14.9644 22.5796L16.6268 24.6735H15.3112L14.3288 23.3837L13.3703 24.6735H12.0734Z" fill="black"/>
<path d="M16.751 20.4861V24.674H17.8228V23.3515H18.9222C19.8524 23.3515 20.5575 22.8568 20.5575 21.8947C20.5575 21.0977 20.0045 20.4861 19.0579 20.4861H16.751ZM17.8228 21.4332H18.9806C19.2811 21.4332 19.4959 21.6178 19.4959 21.9154C19.4959 22.1949 19.2822 22.3975 18.9772 22.3975H17.8228V21.4332Z" fill="black"/>
<path d="M21.011 20.4856V24.6735H22.0554V23.1857H22.4951L23.7473 24.6735H25.0236L23.6494 23.1306C24.2134 23.0829 24.7952 22.5976 24.7952 21.8443C24.7952 20.963 24.1052 20.4856 23.3351 20.4856H21.011ZM22.0554 21.4224H23.2492C23.5356 21.4224 23.7439 21.6469 23.7439 21.8632C23.7439 22.1414 23.474 22.304 23.2647 22.304H22.0554V21.4224Z" fill="black"/>
<path d="M29.1246 24.6735V23.7643H31.2147C31.524 23.7643 31.6579 23.5968 31.6579 23.413C31.6579 23.237 31.5244 23.059 31.2147 23.059H30.2702C29.4492 23.059 28.9919 22.5575 28.9919 21.8047C28.9919 21.1332 29.4107 20.4856 30.6307 20.4856H32.6645L32.2247 21.4279H30.4658C30.1295 21.4279 30.026 21.6048 30.026 21.7737C30.026 21.9473 30.1539 22.1387 30.4108 22.1387H31.4002C32.3154 22.1387 32.7126 22.6592 32.7126 23.3407C32.7126 24.0734 32.27 24.6735 31.3504 24.6735H29.1246Z" fill="black"/>
<path d="M32.9576 24.6735V23.7643H35.0477C35.357 23.7643 35.4909 23.5968 35.4909 23.413C35.4909 23.237 35.3574 23.059 35.0477 23.059H34.1032C33.2822 23.059 32.825 22.5575 32.825 21.8047C32.825 21.1332 33.2437 20.4856 34.4637 20.4856H36.4975L36.0577 21.4279H34.2988C33.9625 21.4279 33.859 21.6048 33.859 21.7737C33.859 21.9473 33.9869 22.1387 34.2438 22.1387H35.2332C36.1484 22.1387 36.5456 22.6592 36.5456 23.3407C36.5456 24.0734 36.103 24.6735 35.1834 24.6735H32.9576Z" fill="black"/>
</svg>
