<svg width="60" height="25" viewBox="0 0 60 25" fill="none" xmlns="http://www.w3.org/2000/svg">
<path d="M11.2911 3.39684C10.5953 4.21815 9.48198 4.86595 8.3687 4.77341C8.22954 3.6629 8.77458 2.48298 9.4124 1.75421C10.1082 0.90976 11.3259 0.308234 12.3116 0.261963C12.4275 1.41874 11.9753 2.55239 11.2911 3.39684ZM12.3 4.99319C10.688 4.90065 9.30803 5.90705 8.54265 5.90705C7.76567 5.90705 6.5944 5.03946 5.31877 5.0626C3.66044 5.08574 2.11808 6.02273 1.27152 7.51497C-0.467985 10.4995 0.819249 14.9184 2.50077 17.3476C3.32414 18.5507 4.30985 19.8694 5.60869 19.8231C6.83793 19.7768 7.325 19.0249 8.80937 19.0249C10.3053 19.0249 10.7344 19.8231 12.0333 19.8C13.3785 19.7768 14.225 18.5969 15.0484 17.3939C15.9877 16.0289 16.3704 14.6986 16.3936 14.6292C16.3704 14.606 13.796 13.6228 13.7728 10.6614C13.7496 8.18591 15.8022 7.00599 15.895 6.93658C14.7353 5.22455 12.9262 5.03946 12.3 4.99319ZM21.6121 1.63853V19.6727H24.4185V13.5071H28.3034C31.852 13.5071 34.3453 11.0779 34.3453 7.56125C34.3453 4.04463 31.8984 1.63853 28.3962 1.63853H21.6121ZM24.4185 3.99836H27.654C30.0893 3.99836 31.4809 5.29396 31.4809 7.57281C31.4809 9.85167 30.0893 11.1588 27.6424 11.1588H24.4185V3.99836ZM39.471 19.8115C41.2337 19.8115 42.8689 18.9208 43.6111 17.5096H43.669V19.6727H46.2667V10.6961C46.2667 8.09336 44.1793 6.41603 40.967 6.41603C37.9867 6.41603 35.7833 8.1165 35.7021 10.4532H38.2302C38.4389 9.34269 39.471 8.61392 40.8858 8.61392C42.6022 8.61392 43.5647 9.41209 43.5647 10.8812V11.876L40.0625 12.0843C36.8038 12.2809 35.0411 13.6112 35.0411 15.9248C35.0411 18.2615 36.8618 19.8115 39.471 19.8115ZM40.2248 17.6715C38.7289 17.6715 37.7779 16.9543 37.7779 15.8554C37.7779 14.7217 38.6941 14.0624 40.4452 13.9582L43.5647 13.7616V14.7796C43.5647 16.4685 42.1267 17.6715 40.2248 17.6715ZM49.7341 24.5775C52.4709 24.5775 53.7582 23.5364 54.8831 20.3784L59.8117 6.58955H56.9589L53.6538 17.2435H53.5958L50.2908 6.58955H47.3568L52.1115 19.719L51.8563 20.5172C51.4272 21.8706 50.7314 22.3912 49.4906 22.3912C49.2703 22.3912 48.8412 22.368 48.6672 22.3449V24.5081C48.8296 24.5543 49.5254 24.5775 49.7341 24.5775Z" fill="black"/>
</svg>
