<?xml version="1.0" encoding="utf-8"?>
<!-- Generator: Adobe Illustrator 27.0.0, SVG Export Plug-In . SVG Version: 6.00 Build 0)  -->
<svg version="1.1" id="Layer_1" xmlns="http://www.w3.org/2000/svg" xmlns:xlink="http://www.w3.org/1999/xlink" x="0px" y="0px"
	 viewBox="0 0 5669.29 5669.29" style="enable-background:new 0 0 5669.29 5669.29;" xml:space="preserve">
<g>
	<g>
		<g>
			<path d="M3769.53,3254.98L3769.53,3254.98c-65.76,0-124.01-37.03-144.21-91.66l-298.51-807.46h230.57l219.04,647.5l179.8-561.05
				c16.38-51.11,69.74-86.45,130.54-86.45h0c60.76,0,114.1,35.3,130.51,86.38l179.76,559.45l219.04-645.83h230.57l-297.64,805.09
				c-20.72,56.05-80.48,94.03-147.94,94.03l0,0c-68.56,0-129.02-39.21-148.83-96.51l-168.39-487.24L3914.6,3160.9
				C3895.29,3216.76,3836.35,3254.98,3769.53,3254.98z"/>
		</g>
		<rect x="1963.19" y="1974.41" width="261.45" height="1250.04"/>
		<g>
			<g>
				<path d="M947.99,1975.91l857.68-9.36v271.15l-801.19,3.99l-4.6,1004.94H702.69l10.29-1035.47
					C714.27,2081.85,818.7,1977.32,947.99,1975.91z"/>
			</g>
			<path d="M1166.56,2674.65c-10.74-0.58-19.08-9.59-18.83-20.34l5.69-248.79l0,0c0-11,8.92-19.92,19.91-19.92h582.13
				c11,0,19.91,8.92,19.91,19.92v145.53c0,11-8.92,19.92-19.91,19.92h-418.21c-11,0-19.91,8.92-19.91,19.91v70.89
				c0,11.42-9.59,20.5-20.99,19.89L1166.56,2674.65z"/>
		</g>
		<g>
			<path d="M3309.95,2809.19c0,269.05-185.05,440.34-480.55,440.34c-296.93,0-459.95-194.57-459.95-427
				c0-243.6,182.56-436.93,475.93-436.93C3153.32,2385.61,3309.95,2585.14,3309.95,2809.19z M2640.8,2818.5
				c0,157.33,78.49,253.53,201.03,253.53c124.67,0,196.77-104.89,196.77-255.7c0-143.99-73.88-253.22-198.19-253.22
				C2719.3,2563.11,2640.8,2664.58,2640.8,2818.5z"/>
		</g>
	</g>
	<g>
		<g>
			<path d="M730.18,3481.42h79.25c40.63,0,68.41,22.68,68.41,60.73c0,40.67-29.29,62.23-70.09,62.23h-49.71v85.76h-27.87V3481.42z
				 M758.04,3581.09h48.34c28.59,0,42.9-13.96,42.9-38.24c0-25.44-17.33-38.15-41.81-38.15h-49.43V3581.09z"/>
			<path d="M946.32,3598.21v91.94h-27.44v-208.73h81.57c42.89,0,65.74,23.26,65.74,55.84c0,27.13-15.58,43.57-35.58,49.09
				c17.03,4.57,31.86,17.29,31.86,53.52v8.95c0,14.38-0.67,32.59,2.81,41.33h-26.91c-3.79-9-3.53-25.27-3.53-44.86v-4.44
				c0-29.72-8.39-42.63-45.83-42.63H946.32z M946.32,3574.92h45.39c31.91,0,45.93-11.99,45.93-35.45
				c0-22.19-14.46-34.76-42.81-34.76h-48.51V3574.92z"/>
			<path d="M1293.51,3584.6c0,57.41-32.19,108.54-97.95,108.54c-61.44,0-95.73-47.49-95.73-107.36c0-59.72,35-107.36,98.14-107.36
				C1256.75,3478.42,1293.51,3522.55,1293.51,3584.6z M1128.81,3584.88c0,45.11,23.09,84.66,67.96,84.66
				c48.46,0,67.75-39.94,67.75-84.53c0-44.97-21.87-82.98-67.68-82.98C1149.54,3502.02,1128.81,3540.35,1128.81,3584.88z"/>
			<path d="M1506,3690.14h-21.26c-1.41-3.99-2.23-13.31-2.63-28.29c-9.09,14.83-27.08,31.11-64.83,31.11
				c-60.19,0-92.16-45.69-92.16-105.07c0-62.49,34.27-109.48,97.26-109.48c48.49,0,79.02,26.25,84.98,63.57h-27.67
				c-7.09-23.33-23.86-40.5-57.91-40.5c-48.46,0-67.68,38.68-67.68,85.08c0,43.01,19.38,83.11,66.54,83.11
				c46.76,0,58.38-31.12,58.38-66.36v-2.19h-58.77v-23.71H1506V3690.14z"/>
			<path d="M1582.62,3598.21v91.94h-27.44v-208.73h81.57c42.89,0,65.74,23.26,65.74,55.84c0,27.13-15.58,43.57-35.58,49.09
				c17.03,4.57,31.86,17.29,31.86,53.52v8.95c0,14.38-0.67,32.59,2.81,41.33h-26.91c-3.79-9-3.53-25.27-3.53-44.86v-4.44
				c0-29.72-8.39-42.63-45.83-42.63H1582.62z M1582.62,3574.92h45.39c31.91,0,45.93-11.99,45.93-35.45
				c0-22.19-14.46-34.76-42.81-34.76h-48.51V3574.92z"/>
			<path d="M1878.73,3592.57h-103.81v73.86h114.01l-3.57,23.71h-137.58v-208.73h135.93v23.71h-108.78v63.73h103.81V3592.57z"/>
			<path d="M1939.96,3632.04c5.66,25.03,22.78,38.56,53.03,38.56c32.56,0,45.45-15.27,45.45-34.99c0-20.94-10.29-32.66-52.13-42.79
				c-49.18-11.95-66.26-28.79-66.26-58.14c0-31,22.86-56.27,69.46-56.27c49.71,0,70.16,28.73,72.97,56.14h-28.17
				c-3.74-18.57-15.36-33.81-45.81-33.81c-25.41,0-39.68,11.44-39.68,31.34c0,19.59,11.78,27.32,48.36,36.18
				c59.53,14.49,70.03,37.66,70.03,64.45c0,33.66-24.94,60.04-75.99,60.04c-52.5,0-75.1-28.69-79.43-60.71H1939.96z"/>
			<path d="M2121.76,3632.04c5.66,25.03,22.78,38.56,53.03,38.56c32.56,0,45.45-15.27,45.45-34.99c0-20.94-10.29-32.66-52.13-42.79
				c-49.18-11.95-66.26-28.79-66.26-58.14c0-31,22.86-56.27,69.46-56.27c49.71,0,70.16,28.73,72.97,56.14h-28.17
				c-3.74-18.57-15.36-33.81-45.81-33.81c-25.41,0-39.68,11.44-39.68,31.34c0,19.59,11.78,27.32,48.36,36.18
				c59.53,14.49,70.03,37.66,70.03,64.45c0,33.66-24.94,60.04-75.99,60.04c-52.5,0-75.1-28.69-79.43-60.71H2121.76z"/>
			<path d="M2318.15,3481.42v208.73h-27.67v-208.73H2318.15z"/>
			<path d="M2424.08,3690.14l-75.98-208.73h29.72l36.76,104.06c10.74,30.63,21.5,61.48,26.11,80.56h0.6
				c4.39-17.09,16.24-49.31,27.2-79.58l38.26-105.05h28.57l-78.56,208.73H2424.08z"/>
			<path d="M2696.23,3592.57h-103.81v73.86h114.01l-3.57,23.71h-137.58v-208.73h135.93v23.71h-108.78v63.73h103.81V3592.57z"/>
			<path d="M3047.96,3481.42h27.67v185.02h108.87l-3.85,23.71h-132.69V3481.42z"/>
			<path d="M3398.3,3584.6c0,57.41-32.19,108.54-97.95,108.54c-61.44,0-95.73-47.49-95.73-107.36c0-59.72,35-107.36,98.14-107.36
				C3361.53,3478.42,3398.3,3522.55,3398.3,3584.6z M3233.6,3584.88c0,45.11,23.09,84.66,67.96,84.66
				c48.46,0,67.75-39.94,67.75-84.53c0-44.97-21.87-82.98-67.68-82.98C3254.33,3502.02,3233.6,3540.35,3233.6,3584.88z"/>
			<path d="M3610.79,3690.14h-21.26c-1.41-3.99-2.22-13.31-2.63-28.29c-9.09,14.83-27.08,31.11-64.83,31.11
				c-60.19,0-92.16-45.69-92.16-105.07c0-62.49,34.28-109.48,97.26-109.48c48.49,0,79.02,26.25,84.98,63.57h-27.67
				c-7.09-23.33-23.86-40.5-57.91-40.5c-48.46,0-67.68,38.68-67.68,85.08c0,43.01,19.38,83.11,66.54,83.11
				c46.76,0,58.38-31.12,58.38-66.36v-2.19h-58.77v-23.71h85.74V3690.14z"/>
			<path d="M3687.64,3481.42v208.73h-27.67v-208.73H3687.64z"/>
			<path d="M3755.55,3632.04c5.66,25.03,22.78,38.56,53.03,38.56c32.56,0,45.45-15.27,45.45-34.99c0-20.94-10.29-32.66-52.13-42.79
				c-49.18-11.95-66.26-28.79-66.26-58.14c0-31,22.86-56.27,69.46-56.27c49.71,0,70.16,28.73,72.97,56.14h-28.17
				c-3.74-18.57-15.36-33.81-45.81-33.81c-25.41,0-39.68,11.44-39.68,31.34c0,19.59,11.78,27.32,48.36,36.18
				c59.53,14.49,70.03,37.66,70.03,64.45c0,33.66-24.94,60.04-75.99,60.04c-52.5,0-75.1-28.69-79.43-60.71H3755.55z"/>
			<path d="M3966.53,3505.13h-67.42v-23.71h162.79v23.71h-67.51v185.02h-27.87V3505.13z"/>
			<path d="M4119.34,3481.42v208.73h-27.67v-208.73H4119.34z"/>
			<path d="M4339.47,3630.96c-9.26,35.42-35.67,61.79-83.04,61.79c-62.43,0-93.91-47.36-93.91-106.36
				c0-56.7,31.52-107.98,94.95-107.98c49.23,0,75.93,28.07,82.09,62.96h-27.67c-7.48-22.73-22.52-39.88-55.53-39.88
				c-46.04,0-64.86,41.86-64.86,84.08c0,40.96,17.88,84.11,66.06,84.11c32.18,0,46.29-18.44,54.13-38.72H4339.47z"/>
			<path d="M4393.05,3632.04c5.66,25.03,22.78,38.56,53.03,38.56c32.56,0,45.45-15.27,45.45-34.99c0-20.94-10.29-32.66-52.13-42.79
				c-49.18-11.95-66.26-28.79-66.26-58.14c0-31,22.86-56.27,69.46-56.27c49.71,0,70.16,28.73,72.97,56.14h-28.17
				c-3.74-18.57-15.36-33.81-45.81-33.81c-25.41,0-39.68,11.44-39.68,31.34c0,19.59,11.78,27.32,48.36,36.18
				c59.53,14.49,70.03,37.66,70.03,64.45c0,33.66-24.94,60.04-75.99,60.04c-52.5,0-75.1-28.69-79.43-60.71H4393.05z"/>
		</g>
	</g>
</g>
</svg>
