<svg width="174" height="77" viewBox="0 0 174 77" fill="none" xmlns="http://www.w3.org/2000/svg">
<path fill-rule="evenodd" clip-rule="evenodd" d="M66.1159 0C66.1159 11.9247 75.714 21.3694 87.2783 21.3694C98.8425 21.3694 108.441 11.9247 108.441 0H123.557C123.557 19.9132 107.438 36.2783 87.2783 36.2783C67.1189 36.2783 51 19.9132 51 0H66.1159Z" fill="black"/>
<path opacity="0.6" d="M9.27 68.8303C7.926 68.8303 6.936 68.4703 6.3 67.7503C5.664 67.0303 5.346 66.0463 5.346 64.7983C5.346 63.5383 5.694 62.5543 6.39 61.8463C7.098 61.1263 8.046 60.7663 9.234 60.7663C9.666 60.7663 10.068 60.8083 10.44 60.8923C10.824 60.9643 11.178 61.0843 11.502 61.2523L11.052 62.1703C10.776 62.0383 10.482 61.9423 10.17 61.8823C9.87 61.8103 9.552 61.7743 9.216 61.7743C8.424 61.7743 7.8 62.0383 7.344 62.5663C6.888 63.0943 6.66 63.8443 6.66 64.8163C6.66 66.8203 7.542 67.8223 9.306 67.8223C9.678 67.8223 10.02 67.7983 10.332 67.7503C10.644 67.7023 10.932 67.6303 11.196 67.5343V68.5423C10.932 68.6263 10.638 68.6983 10.314 68.7583C10.002 68.8063 9.654 68.8303 9.27 68.8303ZM9 72.2683C7.98 72.2683 7.02 72.0763 6.12 71.6923C5.22 71.3083 4.428 70.7803 3.744 70.1083C3.072 69.4243 2.544 68.6323 2.16 67.7323C1.776 66.8323 1.584 65.8723 1.584 64.8523C1.584 63.8203 1.776 62.8603 2.16 61.9723C2.544 61.0723 3.072 60.2863 3.744 59.6143C4.428 58.9303 5.22 58.3963 6.12 58.0123C7.02 57.6283 7.98 57.4363 9 57.4363C10.032 57.4363 10.992 57.6283 11.88 58.0123C12.78 58.3963 13.566 58.9303 14.238 59.6143C14.922 60.2863 15.456 61.0723 15.84 61.9723C16.224 62.8603 16.416 63.8203 16.416 64.8523C16.416 65.8723 16.224 66.8323 15.84 67.7323C15.456 68.6323 14.922 69.4243 14.238 70.1083C13.566 70.7803 12.78 71.3083 11.88 71.6923C10.992 72.0763 10.032 72.2683 9 72.2683ZM9 71.2603C9.888 71.2603 10.716 71.0983 11.484 70.7743C12.264 70.4383 12.948 69.9763 13.536 69.3883C14.124 68.8003 14.58 68.1223 14.904 67.3543C15.24 66.5743 15.408 65.7403 15.408 64.8523C15.408 63.9643 15.24 63.1363 14.904 62.3683C14.58 61.5883 14.124 60.9043 13.536 60.3163C12.948 59.7283 12.264 59.2723 11.484 58.9483C10.716 58.6123 9.888 58.4443 9 58.4443C8.112 58.4443 7.278 58.6123 6.498 58.9483C5.73 59.2723 5.052 59.7283 4.464 60.3163C3.876 60.9043 3.414 61.5883 3.078 62.3683C2.754 63.1363 2.592 63.9643 2.592 64.8523C2.592 65.7403 2.754 66.5743 3.078 67.3543C3.414 68.1223 3.876 68.8003 4.464 69.3883C5.052 69.9763 5.73 70.4383 6.498 70.7743C7.278 71.0983 8.112 71.2603 9 71.2603ZM26.1238 66.2383H31.1818L28.6978 59.6503L26.1238 66.2383ZM28.0678 58.4263H29.4358L34.4758 71.2783H33.1618L31.5958 67.2823H25.7458L24.1978 71.2783H22.9018L28.0678 58.4263ZM35.4457 58.4263H36.5797V71.2783H35.4457V58.4263ZM38.7679 58.4263H39.9019V71.2783H38.7679V58.4263ZM48.522 64.5283H53.094C53.466 64.5283 53.82 64.4743 54.156 64.3663C54.492 64.2463 54.786 64.0783 55.038 63.8623C55.29 63.6463 55.488 63.3883 55.632 63.0883C55.788 62.7763 55.866 62.4223 55.866 62.0263C55.866 61.2343 55.638 60.6103 55.182 60.1543C54.726 59.6983 54.03 59.4703 53.094 59.4703H48.522V64.5283ZM47.298 58.4263H53.184C53.712 58.4263 54.21 58.4923 54.678 58.6243C55.158 58.7563 55.572 58.9603 55.92 59.2363C56.28 59.5003 56.562 59.8483 56.766 60.2803C56.982 60.7003 57.09 61.1983 57.09 61.7743C57.09 62.5903 56.88 63.2983 56.46 63.8983C56.04 64.4983 55.416 64.8823 54.588 65.0503V65.0863C55.008 65.1463 55.356 65.2603 55.632 65.4283C55.908 65.5843 56.13 65.7883 56.298 66.0403C56.478 66.2923 56.604 66.5863 56.676 66.9223C56.76 67.2463 56.814 67.6003 56.838 67.9843C56.85 68.2003 56.862 68.4643 56.874 68.7763C56.886 69.0883 56.91 69.4063 56.946 69.7303C56.982 70.0423 57.036 70.3423 57.108 70.6303C57.192 70.9063 57.3 71.1223 57.432 71.2783H56.082C56.01 71.1583 55.95 71.0143 55.902 70.8463C55.866 70.6663 55.836 70.4863 55.812 70.3063C55.8 70.1143 55.788 69.9283 55.776 69.7483C55.764 69.5683 55.752 69.4123 55.74 69.2803C55.716 68.8243 55.674 68.3743 55.614 67.9303C55.566 67.4743 55.452 67.0723 55.272 66.7243C55.104 66.3643 54.852 66.0763 54.516 65.8603C54.192 65.6443 53.742 65.5483 53.166 65.5723H48.522V71.2783H47.298V58.4263ZM59.1058 58.4263H60.2398V60.2443H59.1058V58.4263ZM59.1058 61.9903H60.2398V71.2783H59.1058V61.9903ZM70.2581 70.5223C70.2581 71.2063 70.1801 71.8243 70.0241 72.3763C69.8801 72.9283 69.6461 73.3963 69.3221 73.7803C68.9981 74.1643 68.5721 74.4583 68.0441 74.6623C67.5281 74.8663 66.8921 74.9683 66.1361 74.9683C65.6681 74.9683 65.2121 74.9143 64.7681 74.8063C64.3241 74.6983 63.9221 74.5303 63.5621 74.3023C63.2141 74.0743 62.9201 73.7803 62.6801 73.4203C62.4521 73.0723 62.3201 72.6523 62.2841 72.1603H63.4181C63.4781 72.5083 63.5921 72.7963 63.7601 73.0243C63.9401 73.2643 64.1501 73.4563 64.3901 73.6003C64.6421 73.7443 64.9181 73.8463 65.2181 73.9063C65.5181 73.9783 65.8241 74.0143 66.1361 74.0143C67.1921 74.0143 67.9541 73.7143 68.4221 73.1143C68.8901 72.5143 69.1241 71.6503 69.1241 70.5223V69.2623H69.0881C68.8241 69.8383 68.4341 70.3003 67.9181 70.6483C67.4141 70.9963 66.8201 71.1703 66.1361 71.1703C65.3921 71.1703 64.7561 71.0503 64.2281 70.8103C63.7001 70.5583 63.2621 70.2163 62.9141 69.7843C62.5781 69.3523 62.3321 68.8483 62.1761 68.2723C62.0201 67.6843 61.9421 67.0603 61.9421 66.4003C61.9421 65.7643 62.0321 65.1643 62.2121 64.6003C62.4041 64.0243 62.6741 63.5263 63.0221 63.1063C63.3821 62.6743 63.8201 62.3383 64.3361 62.0983C64.8641 61.8463 65.4641 61.7203 66.1361 61.7203C66.4841 61.7203 66.8081 61.7683 67.1081 61.8643C67.4201 61.9603 67.7021 62.0983 67.9541 62.2783C68.2061 62.4463 68.4281 62.6443 68.6201 62.8723C68.8241 63.1003 68.9801 63.3403 69.0881 63.5923H69.1241V61.9903H70.2581V70.5223ZM66.1361 70.2163C66.6281 70.2163 67.0601 70.1143 67.4321 69.9103C67.8041 69.6943 68.1161 69.4183 68.3681 69.0823C68.6201 68.7343 68.8061 68.3383 68.9261 67.8943C69.0581 67.4503 69.1241 66.9943 69.1241 66.5263C69.1241 66.0703 69.0701 65.6143 68.9621 65.1583C68.8541 64.7023 68.6801 64.2883 68.4401 63.9163C68.2001 63.5443 67.8881 63.2443 67.5041 63.0163C67.1321 62.7883 66.6761 62.6743 66.1361 62.6743C65.5961 62.6743 65.1341 62.7883 64.7501 63.0163C64.3661 63.2323 64.0481 63.5203 63.7961 63.8803C63.5441 64.2403 63.3581 64.6543 63.2381 65.1223C63.1301 65.5783 63.0761 66.0463 63.0761 66.5263C63.0761 66.9943 63.1361 67.4503 63.2561 67.8943C63.3761 68.3383 63.5621 68.7343 63.8141 69.0823C64.0661 69.4183 64.3841 69.6943 64.7681 69.9103C65.1521 70.1143 65.6081 70.2163 66.1361 70.2163ZM72.394 58.4263H73.528V63.5923H73.564C73.78 63.0283 74.164 62.5783 74.716 62.2423C75.268 61.8943 75.874 61.7203 76.534 61.7203C77.182 61.7203 77.722 61.8043 78.154 61.9723C78.598 62.1403 78.952 62.3803 79.216 62.6923C79.48 62.9923 79.666 63.3643 79.774 63.8083C79.882 64.2523 79.936 64.7503 79.936 65.3023V71.2783H78.802V65.4823C78.802 65.0863 78.766 64.7203 78.694 64.3843C78.622 64.0363 78.496 63.7363 78.316 63.4843C78.136 63.2323 77.89 63.0343 77.578 62.8903C77.278 62.7463 76.9 62.6743 76.444 62.6743C75.988 62.6743 75.58 62.7583 75.22 62.9263C74.872 63.0823 74.572 63.3043 74.32 63.5923C74.08 63.8683 73.888 64.2043 73.744 64.6003C73.612 64.9843 73.54 65.4043 73.528 65.8603V71.2783H72.394V58.4263ZM83.88 61.9903H85.77V62.9443H83.88V69.2083C83.88 69.5803 83.928 69.8743 84.024 70.0903C84.132 70.2943 84.39 70.4083 84.798 70.4323C85.122 70.4323 85.446 70.4143 85.77 70.3783V71.3323C85.602 71.3323 85.434 71.3383 85.266 71.3503C85.098 71.3623 84.93 71.3683 84.762 71.3683C84.006 71.3683 83.478 71.2243 83.178 70.9363C82.878 70.6363 82.734 70.0903 82.746 69.2983V62.9443H81.126V61.9903H82.746V59.2003H83.88V61.9903ZM92.9682 64.7083C92.9562 64.3603 92.8842 64.0603 92.7522 63.8083C92.6202 63.5443 92.4402 63.3283 92.2122 63.1603C91.9962 62.9923 91.7442 62.8723 91.4562 62.8003C91.1682 62.7163 90.8622 62.6743 90.5382 62.6743C90.2862 62.6743 90.0282 62.7043 89.7642 62.7643C89.5122 62.8123 89.2782 62.9023 89.0622 63.0343C88.8462 63.1543 88.6722 63.3163 88.5402 63.5203C88.4082 63.7243 88.3422 63.9763 88.3422 64.2763C88.3422 64.5283 88.4022 64.7443 88.5222 64.9243C88.6542 65.0923 88.8162 65.2363 89.0082 65.3563C89.2002 65.4763 89.4102 65.5783 89.6382 65.6623C89.8662 65.7343 90.0762 65.7943 90.2682 65.8423L91.7802 66.1843C92.1042 66.2323 92.4222 66.3223 92.7342 66.4543C93.0582 66.5743 93.3402 66.7363 93.5802 66.9403C93.8322 67.1443 94.0362 67.3963 94.1922 67.6963C94.3482 67.9963 94.4262 68.3503 94.4262 68.7583C94.4262 69.2623 94.3122 69.6943 94.0842 70.0543C93.8562 70.4023 93.5622 70.6903 93.2022 70.9183C92.8542 71.1343 92.4582 71.2903 92.0142 71.3863C91.5702 71.4823 91.1322 71.5303 90.7002 71.5303C89.6082 71.5303 88.7202 71.2723 88.0362 70.7563C87.3642 70.2403 86.9802 69.4123 86.8842 68.2723H88.0182C88.0662 69.0403 88.3422 69.6223 88.8462 70.0183C89.3622 70.4023 89.9982 70.5943 90.7542 70.5943C91.0302 70.5943 91.3122 70.5643 91.6002 70.5043C91.9002 70.4443 92.1762 70.3423 92.4282 70.1983C92.6802 70.0543 92.8842 69.8743 93.0402 69.6583C93.2082 69.4303 93.2922 69.1543 93.2922 68.8303C93.2922 68.5543 93.2322 68.3263 93.1122 68.1463C93.0042 67.9543 92.8542 67.7983 92.6622 67.6783C92.4702 67.5463 92.2482 67.4383 91.9962 67.3543C91.7562 67.2703 91.5102 67.1983 91.2582 67.1383L89.8002 66.8143C89.4282 66.7183 89.0862 66.6103 88.7742 66.4903C88.4622 66.3583 88.1862 66.2023 87.9462 66.0223C87.7182 65.8303 87.5382 65.6023 87.4062 65.3383C87.2742 65.0623 87.2082 64.7263 87.2082 64.3303C87.2082 63.8623 87.3102 63.4603 87.5142 63.1243C87.7302 62.7883 88.0062 62.5183 88.3422 62.3143C88.6782 62.1103 89.0502 61.9603 89.4582 61.8643C89.8782 61.7683 90.2922 61.7203 90.7002 61.7203C91.1682 61.7203 91.6002 61.7803 91.9962 61.9003C92.4042 62.0203 92.7582 62.2063 93.0582 62.4583C93.3702 62.7103 93.6162 63.0223 93.7962 63.3943C93.9762 63.7663 94.0782 64.2043 94.1022 64.7083H92.9682ZM102.522 64.5283H107.094C107.466 64.5283 107.82 64.4743 108.156 64.3663C108.492 64.2463 108.786 64.0783 109.038 63.8623C109.29 63.6463 109.488 63.3883 109.632 63.0883C109.788 62.7763 109.866 62.4223 109.866 62.0263C109.866 61.2343 109.638 60.6103 109.182 60.1543C108.726 59.6983 108.03 59.4703 107.094 59.4703H102.522V64.5283ZM101.298 58.4263H107.184C107.712 58.4263 108.21 58.4923 108.678 58.6243C109.158 58.7563 109.572 58.9603 109.92 59.2363C110.28 59.5003 110.562 59.8483 110.766 60.2803C110.982 60.7003 111.09 61.1983 111.09 61.7743C111.09 62.5903 110.88 63.2983 110.46 63.8983C110.04 64.4983 109.416 64.8823 108.588 65.0503V65.0863C109.008 65.1463 109.356 65.2603 109.632 65.4283C109.908 65.5843 110.13 65.7883 110.298 66.0403C110.478 66.2923 110.604 66.5863 110.676 66.9223C110.76 67.2463 110.814 67.6003 110.838 67.9843C110.85 68.2003 110.862 68.4643 110.874 68.7763C110.886 69.0883 110.91 69.4063 110.946 69.7303C110.982 70.0423 111.036 70.3423 111.108 70.6303C111.192 70.9063 111.3 71.1223 111.432 71.2783H110.082C110.01 71.1583 109.95 71.0143 109.902 70.8463C109.866 70.6663 109.836 70.4863 109.812 70.3063C109.8 70.1143 109.788 69.9283 109.776 69.7483C109.764 69.5683 109.752 69.4123 109.74 69.2803C109.716 68.8243 109.674 68.3743 109.614 67.9303C109.566 67.4743 109.452 67.0723 109.272 66.7243C109.104 66.3643 108.852 66.0763 108.516 65.8603C108.192 65.6443 107.742 65.5483 107.166 65.5723H102.522V71.2783H101.298V58.4263ZM119.766 65.9863C119.754 65.5543 119.676 65.1403 119.532 64.7443C119.4 64.3483 119.208 64.0003 118.956 63.7003C118.704 63.3883 118.398 63.1423 118.038 62.9623C117.678 62.7703 117.27 62.6743 116.814 62.6743C116.346 62.6743 115.932 62.7703 115.572 62.9623C115.212 63.1423 114.906 63.3883 114.654 63.7003C114.402 64.0003 114.198 64.3543 114.042 64.7623C113.898 65.1583 113.802 65.5663 113.754 65.9863H119.766ZM113.754 66.9403C113.754 67.3483 113.808 67.7743 113.916 68.2183C114.036 68.6503 114.222 69.0403 114.474 69.3883C114.726 69.7363 115.044 70.0243 115.428 70.2523C115.812 70.4803 116.274 70.5943 116.814 70.5943C117.642 70.5943 118.29 70.3783 118.758 69.9463C119.226 69.5143 119.55 68.9383 119.73 68.2183H120.864C120.624 69.2743 120.18 70.0903 119.532 70.6663C118.896 71.2423 117.99 71.5303 116.814 71.5303C116.082 71.5303 115.446 71.4043 114.906 71.1523C114.378 70.8883 113.946 70.5343 113.61 70.0903C113.274 69.6343 113.022 69.1123 112.854 68.5243C112.698 67.9243 112.62 67.2943 112.62 66.6343C112.62 66.0223 112.698 65.4223 112.854 64.8343C113.022 64.2463 113.274 63.7243 113.61 63.2683C113.946 62.8003 114.378 62.4283 114.906 62.1523C115.446 61.8643 116.082 61.7203 116.814 61.7203C117.558 61.7203 118.194 61.8703 118.722 62.1703C119.25 62.4703 119.676 62.8663 120 63.3583C120.336 63.8383 120.576 64.3963 120.72 65.0323C120.864 65.6563 120.924 66.2923 120.9 66.9403H113.754ZM127.984 64.7083C127.972 64.3603 127.9 64.0603 127.768 63.8083C127.636 63.5443 127.456 63.3283 127.228 63.1603C127.012 62.9923 126.76 62.8723 126.472 62.8003C126.184 62.7163 125.878 62.6743 125.554 62.6743C125.302 62.6743 125.044 62.7043 124.78 62.7643C124.528 62.8123 124.294 62.9023 124.078 63.0343C123.862 63.1543 123.688 63.3163 123.556 63.5203C123.424 63.7243 123.358 63.9763 123.358 64.2763C123.358 64.5283 123.418 64.7443 123.538 64.9243C123.67 65.0923 123.832 65.2363 124.024 65.3563C124.216 65.4763 124.426 65.5783 124.654 65.6623C124.882 65.7343 125.092 65.7943 125.284 65.8423L126.796 66.1843C127.12 66.2323 127.438 66.3223 127.75 66.4543C128.074 66.5743 128.356 66.7363 128.596 66.9403C128.848 67.1443 129.052 67.3963 129.208 67.6963C129.364 67.9963 129.442 68.3503 129.442 68.7583C129.442 69.2623 129.328 69.6943 129.1 70.0543C128.872 70.4023 128.578 70.6903 128.218 70.9183C127.87 71.1343 127.474 71.2903 127.03 71.3863C126.586 71.4823 126.148 71.5303 125.716 71.5303C124.624 71.5303 123.736 71.2723 123.052 70.7563C122.38 70.2403 121.996 69.4123 121.9 68.2723H123.034C123.082 69.0403 123.358 69.6223 123.862 70.0183C124.378 70.4023 125.014 70.5943 125.77 70.5943C126.046 70.5943 126.328 70.5643 126.616 70.5043C126.916 70.4443 127.192 70.3423 127.444 70.1983C127.696 70.0543 127.9 69.8743 128.056 69.6583C128.224 69.4303 128.308 69.1543 128.308 68.8303C128.308 68.5543 128.248 68.3263 128.128 68.1463C128.02 67.9543 127.87 67.7983 127.678 67.6783C127.486 67.5463 127.264 67.4383 127.012 67.3543C126.772 67.2703 126.526 67.1983 126.274 67.1383L124.816 66.8143C124.444 66.7183 124.102 66.6103 123.79 66.4903C123.478 66.3583 123.202 66.2023 122.962 66.0223C122.734 65.8303 122.554 65.6023 122.422 65.3383C122.29 65.0623 122.224 64.7263 122.224 64.3303C122.224 63.8623 122.326 63.4603 122.53 63.1243C122.746 62.7883 123.022 62.5183 123.358 62.3143C123.694 62.1103 124.066 61.9603 124.474 61.8643C124.894 61.7683 125.308 61.7203 125.716 61.7203C126.184 61.7203 126.616 61.7803 127.012 61.9003C127.42 62.0203 127.774 62.2063 128.074 62.4583C128.386 62.7103 128.632 63.0223 128.812 63.3943C128.992 63.7663 129.094 64.2043 129.118 64.7083H127.984ZM137.766 65.9863C137.754 65.5543 137.676 65.1403 137.532 64.7443C137.4 64.3483 137.208 64.0003 136.956 63.7003C136.704 63.3883 136.398 63.1423 136.038 62.9623C135.678 62.7703 135.27 62.6743 134.814 62.6743C134.346 62.6743 133.932 62.7703 133.572 62.9623C133.212 63.1423 132.906 63.3883 132.654 63.7003C132.402 64.0003 132.198 64.3543 132.042 64.7623C131.898 65.1583 131.802 65.5663 131.754 65.9863H137.766ZM131.754 66.9403C131.754 67.3483 131.808 67.7743 131.916 68.2183C132.036 68.6503 132.222 69.0403 132.474 69.3883C132.726 69.7363 133.044 70.0243 133.428 70.2523C133.812 70.4803 134.274 70.5943 134.814 70.5943C135.642 70.5943 136.29 70.3783 136.758 69.9463C137.226 69.5143 137.55 68.9383 137.73 68.2183H138.864C138.624 69.2743 138.18 70.0903 137.532 70.6663C136.896 71.2423 135.99 71.5303 134.814 71.5303C134.082 71.5303 133.446 71.4043 132.906 71.1523C132.378 70.8883 131.946 70.5343 131.61 70.0903C131.274 69.6343 131.022 69.1123 130.854 68.5243C130.698 67.9243 130.62 67.2943 130.62 66.6343C130.62 66.0223 130.698 65.4223 130.854 64.8343C131.022 64.2463 131.274 63.7243 131.61 63.2683C131.946 62.8003 132.378 62.4283 132.906 62.1523C133.446 61.8643 134.082 61.7203 134.814 61.7203C135.558 61.7203 136.194 61.8703 136.722 62.1703C137.25 62.4703 137.676 62.8663 138 63.3583C138.336 63.8383 138.576 64.3963 138.72 65.0323C138.864 65.6563 138.924 66.2923 138.9 66.9403H131.754ZM140.422 61.9903H141.466V64.1683H141.502C141.79 63.4123 142.234 62.8303 142.834 62.4223C143.446 62.0143 144.172 61.8283 145.012 61.8643V62.9983C144.496 62.9743 144.028 63.0463 143.608 63.2143C143.188 63.3703 142.822 63.5983 142.51 63.8983C142.21 64.1983 141.976 64.5583 141.808 64.9783C141.64 65.3863 141.556 65.8363 141.556 66.3283V71.2783H140.422V61.9903ZM145.056 61.9903H146.316L149.232 70.1443H149.268L152.148 61.9903H153.318L149.844 71.2783H148.638L145.056 61.9903ZM161.11 65.9863C161.098 65.5543 161.02 65.1403 160.876 64.7443C160.744 64.3483 160.552 64.0003 160.3 63.7003C160.048 63.3883 159.742 63.1423 159.382 62.9623C159.022 62.7703 158.614 62.6743 158.158 62.6743C157.69 62.6743 157.276 62.7703 156.916 62.9623C156.556 63.1423 156.25 63.3883 155.998 63.7003C155.746 64.0003 155.542 64.3543 155.386 64.7623C155.242 65.1583 155.146 65.5663 155.098 65.9863H161.11ZM155.098 66.9403C155.098 67.3483 155.152 67.7743 155.26 68.2183C155.38 68.6503 155.566 69.0403 155.818 69.3883C156.07 69.7363 156.388 70.0243 156.772 70.2523C157.156 70.4803 157.618 70.5943 158.158 70.5943C158.986 70.5943 159.634 70.3783 160.102 69.9463C160.57 69.5143 160.894 68.9383 161.074 68.2183H162.208C161.968 69.2743 161.524 70.0903 160.876 70.6663C160.24 71.2423 159.334 71.5303 158.158 71.5303C157.426 71.5303 156.79 71.4043 156.25 71.1523C155.722 70.8883 155.29 70.5343 154.954 70.0903C154.618 69.6343 154.366 69.1123 154.198 68.5243C154.042 67.9243 153.964 67.2943 153.964 66.6343C153.964 66.0223 154.042 65.4223 154.198 64.8343C154.366 64.2463 154.618 63.7243 154.954 63.2683C155.29 62.8003 155.722 62.4283 156.25 62.1523C156.79 61.8643 157.426 61.7203 158.158 61.7203C158.902 61.7203 159.538 61.8703 160.066 62.1703C160.594 62.4703 161.02 62.8663 161.344 63.3583C161.68 63.8383 161.92 64.3963 162.064 65.0323C162.208 65.6563 162.268 66.2923 162.244 66.9403H155.098ZM171.938 71.2783H170.894V69.5143H170.858C170.738 69.8143 170.558 70.0903 170.318 70.3423C170.09 70.5943 169.826 70.8103 169.526 70.9903C169.226 71.1583 168.902 71.2903 168.554 71.3863C168.218 71.4823 167.882 71.5303 167.546 71.5303C166.838 71.5303 166.22 71.4043 165.692 71.1523C165.176 70.8883 164.744 70.5343 164.396 70.0903C164.048 69.6343 163.79 69.1123 163.622 68.5243C163.454 67.9243 163.37 67.2943 163.37 66.6343C163.37 65.9743 163.454 65.3503 163.622 64.7623C163.79 64.1623 164.048 63.6403 164.396 63.1963C164.744 62.7403 165.176 62.3803 165.692 62.1163C166.22 61.8523 166.838 61.7203 167.546 61.7203C167.894 61.7203 168.23 61.7623 168.554 61.8463C168.89 61.9303 169.202 62.0623 169.49 62.2423C169.778 62.4103 170.03 62.6203 170.246 62.8723C170.474 63.1243 170.648 63.4183 170.768 63.7543H170.804V58.4263H171.938V71.2783ZM164.504 66.6343C164.504 67.1143 164.558 67.5943 164.666 68.0743C164.786 68.5423 164.966 68.9623 165.206 69.3343C165.458 69.7063 165.776 70.0123 166.16 70.2523C166.544 70.4803 167.006 70.5943 167.546 70.5943C168.146 70.5943 168.65 70.4803 169.058 70.2523C169.478 70.0123 169.814 69.7063 170.066 69.3343C170.33 68.9623 170.516 68.5423 170.624 68.0743C170.744 67.5943 170.804 67.1143 170.804 66.6343C170.804 66.1543 170.744 65.6803 170.624 65.2123C170.516 64.7323 170.33 64.3063 170.066 63.9343C169.814 63.5623 169.478 63.2623 169.058 63.0343C168.65 62.7943 168.146 62.6743 167.546 62.6743C167.006 62.6743 166.544 62.7943 166.16 63.0343C165.776 63.2623 165.458 63.5623 165.206 63.9343C164.966 64.3063 164.786 64.7323 164.666 65.2123C164.558 65.6803 164.504 66.1543 164.504 66.6343Z" fill="black"/>
</svg>
