<svg width="55" height="31" viewBox="0 0 55 31" fill="none" xmlns="http://www.w3.org/2000/svg">
<path d="M0 0.0598145H4.93683V16.8676L12.4964 7.26317H18.5131L10.3365 17.3179L18.976 28.7232H12.6506L4.93683 18.6685V28.7232H0V0.0598145Z" fill="black"/>
<path fill-rule="evenodd" clip-rule="evenodd" d="M17.7417 17.9183C17.7417 24.2172 22.7839 29.3236 29.0038 29.3236C34.6702 29.3236 39.3591 25.0857 40.1489 19.569H35.4872C34.8403 22.7435 32.1833 25.1216 29.0038 25.1216C26.8208 25.1216 24.8841 24.0005 23.6752 22.2703L35.5646 17.0178L39.9112 15.0669C38.661 10.1477 34.2516 6.51294 29.0038 6.51294C22.7839 6.51294 17.7417 11.6193 17.7417 17.9183ZM22.37 18.0683C22.37 14.1729 25.3401 11.015 29.0038 11.015C31.049 11.015 32.8781 11.999 34.095 13.5461L22.3937 18.6686C22.378 18.4707 22.37 18.2705 22.37 18.0683Z" fill="black"/>
<path fill-rule="evenodd" clip-rule="evenodd" d="M50.0331 29.7737H54.0204V25.9556H50.3471C48.6201 25.9556 47.7173 25.0011 47.7173 23.2829V13.6429H54.0204V9.53772H47.7173V2.62695H43.0857V9.53772V13.6429V23.5884C43.0857 27.5974 45.5192 29.7737 50.0331 29.7737Z" fill="black"/>
</svg>
