<svg width="64" height="23" viewBox="0 0 64 23" fill="none" xmlns="http://www.w3.org/2000/svg">
<path d="M27.1835 13.3079H0.392822V22.3887H27.1835V13.3079Z" fill="black"/>
<path d="M27.1835 0.916748H0.392822V10.0057H27.1835V0.916748Z" fill="black"/>
<path d="M53.9742 20.5434L53.8549 20.5676C53.4413 20.6486 53.2902 20.6809 52.9879 20.6809C52.2879 20.6809 51.4606 20.3167 51.4606 18.6009C51.4606 17.7187 51.6038 16.5452 52.9083 16.5452H52.9163C53.139 16.5614 53.3936 16.5857 53.8708 16.7313L53.9742 16.7637V20.5434ZM54.189 11.9886L53.9742 12.029V15.2017L53.7833 15.145L53.7277 15.1288C53.5129 15.0641 53.0197 14.9184 52.5424 14.9184C49.9334 14.9184 49.3845 16.9256 49.3845 18.609C49.3845 20.9157 50.6572 22.243 52.8765 22.243C53.8152 22.243 54.5072 22.1459 55.2072 21.9112C55.8515 21.7007 56.0822 21.4013 56.0822 20.7619V11.6567C55.4617 11.77 54.8174 11.8834 54.189 11.9886Z" fill="black"/>
<path d="M61.7299 20.6L61.6185 20.6324L61.2208 20.7376C60.8469 20.8347 60.5128 20.8914 60.2583 20.8914C59.6458 20.8914 59.2799 20.5838 59.2799 20.0577C59.2799 19.7178 59.431 19.1432 60.4333 19.1432H61.7299V20.6ZM60.8151 14.8779C60.0117 14.8779 59.1844 15.0236 58.1583 15.3474L57.4901 15.5497L57.7129 17.0874L58.3651 16.8689C59.0492 16.6423 59.9003 16.4966 60.5367 16.4966C60.8231 16.4966 61.6981 16.4966 61.6981 17.4597V17.8806H60.481C58.2617 17.8806 57.2356 18.6009 57.2356 20.1468C57.2356 21.466 58.1822 22.2592 59.7731 22.2592C60.2662 22.2592 60.9503 22.162 61.539 22.0164L61.5708 22.0083L61.6026 22.0164L61.8015 22.0487C62.4219 22.162 63.0662 22.2754 63.6946 22.3968V17.3464C63.6946 15.7116 62.7242 14.8779 60.8151 14.8779Z" fill="black"/>
<path d="M46.2743 20.6L46.1629 20.6324L45.7652 20.7376C45.3914 20.8347 45.0652 20.8914 44.8027 20.8914C44.1902 20.8914 43.8243 20.5838 43.8243 20.0577C43.8243 19.7178 43.9755 19.1432 44.9698 19.1432H46.2663L46.2743 20.6ZM45.3675 14.8779C44.5561 14.8779 43.7368 15.0236 42.7107 15.3474L42.0425 15.5497L42.2653 17.0874L42.9175 16.8689C43.6016 16.6423 44.4527 16.4966 45.0891 16.4966C45.3754 16.4966 46.2504 16.4966 46.2504 17.4597V17.8806H45.0334C42.8141 17.8806 41.78 18.6009 41.78 20.1468C41.78 21.466 42.7266 22.2592 44.3255 22.2592C44.8186 22.2592 45.5027 22.162 46.0913 22.0164L46.1232 22.0083L46.155 22.0164L46.3459 22.0487C46.9743 22.162 47.6107 22.2754 48.2391 22.4048V17.3545C48.247 15.7035 47.2766 14.8779 45.3675 14.8779Z" fill="black"/>
<path d="M37.8983 14.8941C36.8881 14.8941 36.0529 15.234 35.7426 15.3797L35.6631 15.4202L35.5915 15.3635C35.162 15.0479 34.5336 14.886 33.6586 14.886C32.887 14.886 32.1631 14.9993 31.3756 15.234C30.6995 15.4444 30.437 15.7763 30.437 16.3995V22.1701H32.5529V16.8365L32.6563 16.8041C33.0858 16.6585 33.3404 16.6342 33.587 16.6342C34.1995 16.6342 34.5097 16.966 34.5097 17.6135V22.1782H36.5938V17.5245C36.5938 17.2493 36.5381 17.0874 36.5301 17.055L36.4585 16.9174L36.6017 16.8527C36.9199 16.707 37.2699 16.6342 37.6358 16.6342C38.0574 16.6342 38.5585 16.8041 38.5585 17.6135V22.1782H40.6346V17.4031C40.6346 15.7115 39.7437 14.8941 37.8983 14.8941Z" fill="black"/>
<path d="M60.1707 6.84116C59.8604 6.84116 59.3434 6.80879 58.9377 6.72785L58.8184 6.70357V3.58759C58.8184 3.3286 58.7707 3.16673 58.7627 3.14245L58.6991 3.01295L58.8343 2.9563C58.8661 2.94011 58.8979 2.93202 58.9377 2.91583L58.9616 2.89965C59.0093 2.88346 59.057 2.86727 59.1048 2.85108C59.1286 2.84299 59.1445 2.8349 59.1604 2.8349C59.6298 2.7054 60.0593 2.72159 60.2502 2.7054H60.2582C61.5547 2.7054 61.7059 3.87895 61.7059 4.76114C61.6979 6.47695 60.8627 6.84116 60.1707 6.84116ZM60.1627 0.916748C60.1468 0.916748 60.1229 0.916748 60.107 0.916748C58.89 0.916748 57.6411 1.25667 57.1957 1.92034C56.957 2.24408 56.8218 2.64875 56.8139 3.12626V6.33937C56.8139 6.61454 56.7582 6.71976 56.7502 6.74404L56.6786 6.88163H52.8366V4.64783H52.8287C52.781 2.29264 51.4128 0.997683 49.4321 0.997683H49.2014H47.4992C47.4197 1.57232 47.356 1.97699 47.2765 2.55163H49.2014C50.2117 2.55163 50.7446 3.42572 50.7446 4.76923V7.01922L50.6094 6.94637C50.5855 6.93828 50.4185 6.88163 50.156 6.88163H46.831C46.7674 7.31058 46.6878 7.86903 46.6003 8.42748H56.8218C57.1718 8.35464 57.5775 8.28989 57.9275 8.23323C58.4445 8.49223 59.407 8.62981 60.0672 8.62981C62.2865 8.62981 63.7263 7.11634 63.7263 4.78542C63.7183 2.47879 62.3263 0.965309 60.1627 0.916748Z" fill="black"/>
<path d="M42.2414 9.3745H42.3369C44.5562 9.3745 45.5903 8.6299 45.5903 6.79268C45.5903 5.47345 44.6437 4.4213 43.0528 4.4213H41.0085C40.396 4.4213 40.0301 4.06519 40.0301 3.46627C40.0301 3.0616 40.1812 2.5598 41.1835 2.5598H45.6539C45.7494 1.96898 45.7971 1.59668 45.8846 1.00586H41.2392C39.0756 1.00586 37.9858 1.92851 37.9858 3.46627C37.9858 4.98784 38.9324 5.781 40.5233 5.781H42.5676C43.1801 5.781 43.546 6.2747 43.546 6.79268C43.546 7.13261 43.3948 7.83674 42.4005 7.83674H42.0585L35.512 7.82055H34.3188C33.3086 7.82055 32.6006 7.23782 32.6006 5.88622V4.95547C32.6006 3.54721 33.1495 2.67311 34.3188 2.67311H36.2597C36.3472 2.0742 36.4029 1.6938 36.4824 1.12726H34.0642H33.8336C31.8529 1.12726 30.4847 2.47887 30.437 4.83407V4.92309V5.88622C30.4847 8.24141 31.8529 9.3664 33.8336 9.3664H34.0642H35.7665L39.3142 9.3745H41.4301H42.2414Z" fill="black"/>
</svg>
