<svg width="51" height="37" viewBox="0 0 51 37" fill="none" xmlns="http://www.w3.org/2000/svg">
<path d="M11.8998 33.4981V31.3453C11.8998 30.5218 11.3973 29.9826 10.5346 29.9826C10.1032 29.9826 9.63417 30.1247 9.3117 30.5929C9.06043 30.2 8.70027 29.9826 8.16003 29.9826C7.79988 29.9826 7.43972 30.0913 7.15494 30.4842V30.0537H6.40112V33.4981H7.15494V31.5961C7.15494 30.9858 7.47741 30.6974 7.97995 30.6974C8.4825 30.6974 8.73377 31.0193 8.73377 31.5961V33.4981H9.48759V31.5961C9.48759 30.9858 9.84775 30.6974 10.3126 30.6974C10.8151 30.6974 11.0664 31.0193 11.0664 31.5961V33.4981H11.8998ZM23.0815 30.0537H21.8586V29.0128H21.1048V30.0537H20.4221V30.735H21.1048V32.3151C21.1048 33.1052 21.4272 33.5692 22.2899 33.5692C22.6124 33.5692 22.9726 33.4605 23.2238 33.3184L23.0061 32.6705C22.7883 32.8126 22.537 32.8502 22.357 32.8502C21.9968 32.8502 21.8544 32.6328 21.8544 32.2775V30.735H23.0773V30.0537H23.0815ZM29.4805 29.9784C29.0492 29.9784 28.7602 30.1958 28.5801 30.48V30.0495H27.8263V33.4939H28.5801V31.5543C28.5801 30.9817 28.8314 30.6556 29.3005 30.6556C29.4428 30.6556 29.6229 30.6932 29.7695 30.7267L29.9873 30.0077C29.8365 29.9784 29.6229 29.9784 29.4805 29.9784ZM19.8107 30.3379C19.4506 30.0871 18.948 29.9784 18.4078 29.9784C17.5451 29.9784 16.9713 30.409 16.9713 31.0903C16.9713 31.663 17.4027 31.9891 18.1565 32.0936L18.5167 32.1312C18.9103 32.2023 19.1281 32.311 19.1281 32.4907C19.1281 32.7415 18.8391 32.9213 18.3366 32.9213C17.834 32.9213 17.4362 32.7415 17.1849 32.5618L16.8248 33.1345C17.2184 33.4229 17.7587 33.565 18.2989 33.565C19.304 33.565 19.8819 33.0968 19.8819 32.4531C19.8819 31.8428 19.4129 31.5209 18.6967 31.4122L18.3366 31.3746C18.0141 31.337 17.7628 31.2659 17.7628 31.0527C17.7628 30.8019 18.0141 30.6598 18.412 30.6598C18.8433 30.6598 19.2747 30.8395 19.4924 30.9482L19.8107 30.3379ZM39.8665 29.9784C39.4351 29.9784 39.1462 30.1958 38.9661 30.48V30.0495H38.2123V33.4939H38.9661V31.5543C38.9661 30.9817 39.2174 30.6556 39.6864 30.6556C39.8288 30.6556 40.0089 30.6932 40.1554 30.7267L40.3732 30.016C40.2266 29.9784 40.0131 29.9784 39.8665 29.9784ZM30.2344 31.7759C30.2344 32.8168 30.9547 33.5692 32.0686 33.5692C32.5712 33.5692 32.9314 33.4605 33.2915 33.1763L32.9314 32.5659C32.6424 32.7833 32.3576 32.8878 32.031 32.8878C31.4195 32.8878 30.9882 32.4573 30.9882 31.7759C30.9882 31.128 31.4195 30.6974 32.031 30.664C32.3534 30.664 32.6424 30.7727 32.9314 30.9858L33.2915 30.3755C32.9314 30.0871 32.5712 29.9826 32.0686 29.9826C30.9547 29.9784 30.2344 30.735 30.2344 31.7759ZM37.2072 31.7759V30.0537H36.4534V30.4842C36.2021 30.1623 35.8419 29.9826 35.3729 29.9826C34.4013 29.9826 33.6475 30.735 33.6475 31.7759C33.6475 32.8168 34.4013 33.5692 35.3729 33.5692C35.8754 33.5692 36.2356 33.3894 36.4534 33.0676V33.4981H37.2072V31.7759ZM34.439 31.7759C34.439 31.1656 34.8326 30.664 35.4818 30.664C36.0932 30.664 36.5246 31.1321 36.5246 31.7759C36.5246 32.3862 36.0932 32.8878 35.4818 32.8878C34.8368 32.8502 34.439 32.382 34.439 31.7759ZM25.4183 29.9784C24.4132 29.9784 23.6929 30.6974 23.6929 31.7717C23.6929 32.8502 24.4132 33.565 25.456 33.565C25.9585 33.565 26.4611 33.4229 26.8589 33.0968L26.4988 32.5576C26.2098 32.775 25.8496 32.9171 25.4937 32.9171C25.0246 32.9171 24.5598 32.6997 24.4509 32.0936H27.0013C27.0013 31.9849 27.0013 31.9138 27.0013 31.8052C27.0348 30.6974 26.3857 29.9784 25.4183 29.9784ZM25.4183 30.6263C25.8873 30.6263 26.2098 30.9148 26.281 31.4498H24.4844C24.5556 30.9858 24.8781 30.6263 25.4183 30.6263ZM44.1465 31.7759V28.6909H43.3927V30.4842C43.1414 30.1623 42.7812 29.9826 42.3122 29.9826C41.3406 29.9826 40.5868 30.735 40.5868 31.7759C40.5868 32.8168 41.3406 33.5692 42.3122 33.5692C42.8148 33.5692 43.1749 33.3894 43.3927 33.0676V33.4981H44.1465V31.7759ZM41.3783 31.7759C41.3783 31.1656 41.772 30.664 42.4211 30.664C43.0325 30.664 43.4639 31.1321 43.4639 31.7759C43.4639 32.3862 43.0325 32.8878 42.4211 32.8878C41.772 32.8502 41.3783 32.382 41.3783 31.7759ZM16.1421 31.7759V30.0537H15.3883V30.4842C15.137 30.1623 14.7769 29.9826 14.3078 29.9826C13.3363 29.9826 12.5824 30.735 12.5824 31.7759C12.5824 32.8168 13.3363 33.5692 14.3078 33.5692C14.8104 33.5692 15.1705 33.3894 15.3883 33.0676V33.4981H16.1421V31.7759ZM13.3404 31.7759C13.3404 31.1656 13.7341 30.664 14.3832 30.664C14.9947 30.664 15.426 31.1321 15.426 31.7759C15.426 32.3862 14.9947 32.8878 14.3832 32.8878C13.7341 32.8502 13.3404 32.382 13.3404 31.7759Z" fill="black"/>
<path d="M30.8834 3.89404H19.5593V24.2014H30.8834V3.89404Z" fill="#FEDED8"/>
<path d="M20.3134 14.0476C20.3134 9.92179 22.2566 6.25994 25.2383 3.89396C23.0439 2.17173 20.2757 1.13086 17.2562 1.13086C10.1033 1.13086 4.31567 6.90787 4.31567 14.0476C4.31567 21.1874 10.1033 26.9644 17.2562 26.9644C20.2757 26.9644 23.0439 25.9235 25.2383 24.2013C22.2524 21.8688 20.3134 18.1735 20.3134 14.0476Z" fill="black"/>
<path d="M46.1609 14.0476C46.1609 21.1874 40.3733 26.9644 33.2204 26.9644C30.2009 26.9644 27.4327 25.9235 25.2383 24.2013C28.2577 21.8311 30.1632 18.1735 30.1632 14.0476C30.1632 9.92179 28.2201 6.25994 25.2383 3.89396C27.4285 2.17173 30.1967 1.13086 33.2162 1.13086C40.3733 1.13086 46.1609 6.9455 46.1609 14.0476Z" fill="black"/>
</svg>
