<?xml version="1.0" standalone="no"?>
<!DOCTYPE svg PUBLIC "-//W3C//DTD SVG 20010904//EN"
 "http://www.w3.org/TR/2001/REC-SVG-20010904/DTD/svg10.dtd">
<svg version="1.0" xmlns="http://www.w3.org/2000/svg"
 width="640.000000pt" height="1280.000000pt" viewBox="0 0 640.000000 1280.000000"
 preserveAspectRatio="xMidYMid meet">
<g transform="translate(0.000000,1280.000000) scale(0.100000,-0.100000)"
fill="#000000" stroke="none">
<path d="M3180 12797 c-3 -3 -97 -12 -210 -21 -573 -45 -843 -87 -1153 -181
-96 -29 -389 -143 -403 -158 -7 -7 56 -529 67 -557 6 -13 19 -107 30 -208 10
-101 21 -186 23 -190 11 -19 66 -375 64 -418 -1 -27 2 -99 6 -160 l9 -112 -69
-38 c-339 -187 -503 -386 -520 -629 -16 -221 111 -428 371 -600 131 -88 399
-219 540 -265 55 -18 109 -38 121 -45 24 -15 239 -65 275 -64 l24 0 -25 10
c-14 6 -37 23 -53 39 -30 30 -56 36 -197 43 -109 6 -379 131 -583 270 -338
230 -447 531 -300 827 41 82 61 109 153 200 125 125 256 220 264 193 2 -10 12
-110 21 -223 11 -141 21 -215 32 -238 17 -33 159 -161 224 -200 59 -36 234
-101 352 -131 286 -74 555 -95 1107 -88 486 6 654 24 925 98 38 10 73 19 77
19 5 0 8 -62 8 -139 l0 -138 49 -104 c27 -57 59 -142 70 -189 20 -80 20 -86 4
-97 -23 -17 -33 -1 -33 55 0 30 -4 42 -15 42 -18 0 -309 -125 -352 -152 -29
-17 -32 -24 -30 -59 1 -21 7 -39 12 -39 6 0 62 9 125 20 63 11 117 16 120 12
3 -4 16 -38 27 -77 12 -38 49 -161 83 -273 34 -112 60 -205 58 -208 -2 -2 -58
5 -124 16 -65 11 -132 20 -149 19 l-30 -1 31 -9 c17 -5 36 -15 41 -21 6 -7 18
-65 27 -128 15 -98 33 -189 53 -262 2 -10 11 -18 19 -18 31 0 132 60 171 102
48 53 67 104 60 164 -2 24 -1 44 3 44 5 0 29 -9 55 -20 26 -11 55 -20 66 -20
25 0 199 -91 321 -167 288 -181 501 -395 568 -570 27 -69 14 270 111 -2898 77
-2536 77 -2580 34 -2580 -17 0 -20 6 -17 45 2 25 3 245 3 490 0 584 -26 1360
-112 3320 l-40 924 22 68 c18 56 21 85 17 170 -5 136 -24 177 -135 285 -53 52
-83 89 -83 103 0 11 -20 42 -45 68 l-45 47 0 -34 c0 -39 10 -40 -140 18 -195
76 -460 150 -723 200 -60 12 -130 28 -155 36 -65 21 -365 52 -627 66 -149 8
-330 9 -560 4 -187 -5 -374 -9 -415 -9 l-75 -1 -6 37 c-3 20 -13 47 -21 60
-23 35 -136 91 -268 132 -63 20 -119 39 -125 44 -6 4 -10 65 -10 145 l0 138
40 10 c22 6 60 17 85 24 l45 15 -75 -5 c-94 -7 -234 -31 -280 -50 -19 -8 -78
-26 -130 -40 -492 -137 -1079 -523 -1216 -800 -44 -89 -45 -98 -64 -695 -6
-190 -15 -473 -20 -630 -5 -157 -14 -424 -20 -595 -10 -308 -21 -635 -40
-1202 -5 -164 -14 -437 -20 -608 -12 -359 -25 -754 -41 -1220 -16 -472 1 -667
97 -1128 126 -606 283 -986 463 -1128 132 -103 437 -236 789 -343 134 -41 172
-45 64 -7 -182 64 -369 140 -477 194 -233 116 -296 175 -385 360 -99 205 -182
484 -264 883 -61 296 -91 501 -111 744 -4 41 3 350 14 685 12 336 25 743 31
905 5 162 14 430 20 595 5 165 14 435 20 600 5 165 14 442 20 615 6 173 15
441 20 595 5 154 14 435 20 625 17 519 26 668 45 723 90 254 532 607 980 782
136 53 185 65 185 44 0 -8 -11 -48 -24 -89 -46 -146 -51 -183 -31 -236 26 -68
92 -128 197 -177 48 -23 88 -45 88 -49 0 -5 -13 -8 -29 -8 -16 0 -42 -5 -57
-10 -41 -16 -274 -60 -317 -60 -21 0 -63 -10 -95 -21 -31 -12 -118 -43 -192
-69 -167 -59 -325 -128 -406 -178 -65 -39 -201 -178 -229 -233 -32 -60 -36
-93 -35 -279 0 -102 -11 -547 -25 -990 -14 -443 -39 -1239 -55 -1770 -16 -531
-37 -1203 -46 -1495 l-17 -530 43 -335 c26 -208 53 -377 70 -445 55 -214 172
-505 313 -780 l82 -160 225 -141 c124 -78 245 -149 270 -159 506 -196 1083
-276 1833 -253 351 10 616 44 891 113 76 20 141 34 143 31 3 -2 -54 -23 -126
-47 -72 -24 -129 -45 -127 -47 11 -10 359 91 545 160 290 106 482 203 579 293
190 176 392 773 491 1450 48 326 48 350 11 1340 -5 138 -14 383 -20 545 -19
533 -30 841 -40 1120 -6 151 -15 401 -20 555 -14 397 -29 808 -40 1110 -5 143
-14 406 -20 585 -12 362 -20 409 -77 503 -149 246 -648 579 -1106 739 -32 11
-64 30 -71 42 -8 11 -32 93 -55 181 -35 138 -42 182 -47 308 l-7 147 39 15
c200 81 398 179 514 255 127 84 273 231 323 326 88 170 88 339 -1 508 -70 133
-266 302 -469 404 -34 18 -64 36 -67 41 -3 5 3 100 14 212 11 112 36 371 55
574 20 204 44 462 55 575 11 113 23 232 26 266 l6 60 -64 32 c-143 70 -630
213 -743 217 -27 1 -117 11 -200 23 -82 12 -204 27 -270 33 -139 12 -468 23
-475 16z m1701 -2133 c260 -174 385 -385 366 -619 -7 -80 -32 -159 -79 -248
-43 -82 -205 -244 -318 -318 -103 -68 -252 -149 -272 -149 -13 0 -15 47 -17
336 -1 185 -5 342 -8 350 -12 31 8 64 60 98 34 23 63 53 83 88 30 51 32 62 48
253 21 239 25 265 41 265 6 0 50 -25 96 -56z m779 -8912 l19 23 1 -31 c0 -77
-101 -503 -166 -693 -98 -286 -189 -430 -332 -525 -110 -72 -441 -227 -485
-226 -7 0 48 32 122 70 273 143 326 196 433 441 42 96 104 244 138 329 33 85
81 203 105 261 25 59 66 172 92 250 38 115 49 137 51 111 l3 -33 19 23z"/>
<path d="M4861 9903 l1 -158 25 54 c35 74 42 173 15 220 -37 68 -42 53 -41
-116z"/>
</g>
</svg>
