<svg width="22" height="22" viewBox="0 0 22 22" fill="none" xmlns="http://www.w3.org/2000/svg">
<g clip-path="url(#clip0_1_3363)">
<path d="M11.3927 20.5343C11.3382 20.5343 11.2862 20.5323 11.2467 20.5303C11.2153 20.5331 11.1829 20.5343 11.1504 20.5343C10.0052 20.5343 9.23952 19.9872 8.5638 19.5041C8.07948 19.1584 7.62272 18.832 7.08762 18.742C6.82482 18.698 6.56339 18.6756 6.3108 18.6756C5.85567 18.6756 5.49599 18.747 5.23339 18.7989C5.0718 18.8307 4.93246 18.8581 4.82477 18.8581C4.71197 18.8581 4.57493 18.8328 4.51781 18.6357C4.47254 18.4803 4.44008 18.3297 4.40874 18.1846C4.33034 17.8222 4.27349 17.601 4.1392 17.58C2.70289 17.356 1.85425 17.0261 1.6852 16.6266C1.66749 16.5846 1.65759 16.5424 1.65539 16.5006C1.64881 16.3815 1.732 16.2771 1.84817 16.2576C2.98881 16.0678 4.00303 15.4586 4.86279 14.4462C5.52881 13.6625 5.85588 12.9137 5.89099 12.831C5.89252 12.8273 5.89431 12.8234 5.89615 12.8198C6.06187 12.48 6.09484 12.1864 5.99445 11.9473C5.80938 11.5063 5.19644 11.3098 4.79093 11.1797C4.69007 11.1475 4.59468 11.117 4.51868 11.0865C4.15921 10.943 3.56801 10.6398 3.64677 10.2214C3.70414 9.91623 4.10352 9.70373 4.4263 9.70373C4.51592 9.70373 4.59534 9.71961 4.66221 9.75133C5.02694 9.92402 5.35507 10.0115 5.63727 10.0115C5.98822 10.0115 6.15773 9.87651 6.19871 9.83814C6.1886 9.64895 6.17625 9.44893 6.16431 9.25974C6.16431 9.25954 6.16406 9.25727 6.16406 9.25727C6.08168 7.933 5.97893 6.28497 6.39608 5.3399C7.64462 2.511 10.2924 2.29102 11.0739 2.29102C11.0948 2.29102 11.4146 2.28782 11.4146 2.28782C11.429 2.28756 11.4447 2.28735 11.4609 2.28735C12.2446 2.28735 14.8979 2.50759 16.1472 5.3382C16.5644 6.28389 16.4615 7.93331 16.3789 9.25897L16.375 9.32241C16.3637 9.50242 16.3532 9.67278 16.3444 9.83793C16.383 9.87383 16.5381 9.99762 16.8536 10.0102C17.1227 9.99973 17.4318 9.91262 17.7723 9.75154C17.8775 9.70161 17.994 9.69124 18.0731 9.69124C18.1927 9.69124 18.3144 9.71476 18.4158 9.75752L18.4212 9.75964C18.7101 9.86326 18.8993 10.0703 18.9034 10.2879C18.907 10.4907 18.7579 10.7938 18.0244 11.0866C17.9492 11.1167 17.8534 11.1474 17.7521 11.1798C17.3462 11.31 16.7338 11.5064 16.5487 11.9472C16.4482 12.1863 16.4813 12.4798 16.647 12.8195C16.6489 12.8232 16.6505 12.827 16.6522 12.8309C16.7033 12.9518 17.9387 15.7985 20.6951 16.2574C20.8112 16.2769 20.8945 16.3814 20.8879 16.5003C20.8854 16.543 20.8752 16.5858 20.8574 16.6275C20.6895 17.0248 19.8409 17.3542 18.4042 17.5785C18.2693 17.5995 18.2125 17.8198 18.1349 18.1803C18.1027 18.3292 18.07 18.4752 18.0253 18.6286C17.9835 18.7728 17.8905 18.8433 17.7412 18.8433H17.7187C17.6214 18.8433 17.4837 18.8255 17.3099 18.7911C17.0063 18.7314 16.6657 18.6758 16.2325 18.6758C15.98 18.6758 15.7186 18.6982 15.4555 18.7422C14.921 18.8321 14.4643 19.158 13.9808 19.5034C13.3038 19.9871 12.5378 20.5343 11.3927 20.5343Z" stroke="black"/>
</g>
<defs>
<clipPath id="clip0_1_3363">
<rect width="21.0526" height="21.0526" fill="white" transform="translate(0.683594 0.68457)"/>
</clipPath>
</defs>
</svg>
