<svg width="24" height="24" viewBox="0 0 24 24" fill="none" xmlns="http://www.w3.org/2000/svg">
<path fill-rule="evenodd" clip-rule="evenodd" d="M3.75134 3.88249C3.03282 2.89493 3.72831 1.5 4.95914 1.5H19.1379C20.3355 1.5 21.0474 2.83307 20.3866 3.8292L14.6945 12.4097C14.6401 12.4917 14.6111 12.5878 14.6111 12.6861V19.7421C14.6111 20.2046 14.3978 20.6413 14.0328 20.9255L12.4773 22.1371C11.4921 22.9043 10.0556 22.2023 10.0556 20.9536V12.7099C10.0556 12.6042 10.0221 12.5012 9.9599 12.4157L3.75134 3.88249ZM4.95914 2.5C4.55522 2.5 4.31671 2.95983 4.55996 3.29416L5.6052 4.73077H18.5885L19.5533 3.2764C19.7744 2.94313 19.5356 2.5 19.1379 2.5H4.95914ZM17.9251 5.73077H6.33277L10.7685 11.8274C10.9551 12.0838 11.0556 12.3928 11.0556 12.7099V20.9536C11.0556 21.3699 11.5344 21.6039 11.8628 21.3481L13.4184 20.1366C13.54 20.0418 13.6111 19.8963 13.6111 19.7421V12.6861C13.6111 12.3912 13.6981 12.1028 13.8612 11.8569L17.9251 5.73077Z" fill="black"/>
</svg>
