<svg width="17" height="19" viewBox="0 0 17 19" fill="none" xmlns="http://www.w3.org/2000/svg">
<path d="M11.6164 0.526367C11.7065 1.05864 11.987 2.54653 12.6419 3.29591C12.9037 3.57892 13.1985 3.82943 13.5201 4.04202C13.6307 4.11403 13.7448 4.18045 13.862 4.24104C14.6248 4.62133 15.3698 4.73712 15.7367 4.69732V7.65864C15.7367 7.65864 14.6896 7.61521 13.9123 7.40896C12.829 7.11913 12.1346 6.67406 12.1346 6.67406C12.1346 6.67406 11.6526 6.35528 11.6164 6.33357V12.453C11.6164 12.7932 11.5263 13.6442 11.2564 14.3538C11.0198 14.9606 10.6816 15.5226 10.2563 16.0157C10.2563 16.0157 9.59049 16.8411 8.42101 17.3951C7.36661 17.8948 6.43812 17.8836 6.16095 17.8948C6.16095 17.8948 4.5598 17.9592 3.11568 16.9779L3.10845 16.9706V16.9779C2.62021 16.6372 2.18482 16.2264 1.81631 15.7588C1.3593 15.1759 1.07887 14.4844 1.00651 14.2818V14.2746C0.89144 13.9304 0.650092 13.0978 0.686276 12.2942C0.743809 10.8783 1.21891 10.0059 1.34483 9.7888C1.67573 9.19346 2.10798 8.66043 2.62213 8.2137C3.20891 7.7218 3.89126 7.35685 4.62615 7.14187C5.36103 6.92688 6.13249 6.86653 6.89187 6.96462L6.88825 10.0019C6.6381 9.92042 6.37664 9.87902 6.11355 9.87926C4.72371 9.87926 3.5973 11.0126 3.5973 12.4122C3.5973 13.8118 4.72371 14.9451 6.11355 14.9451C6.54627 14.9456 6.97167 14.8334 7.34779 14.6194C7.70867 14.4144 8.01364 14.1238 8.23586 13.7732C8.45808 13.4227 8.59075 13.0229 8.6222 12.609C8.6222 12.6068 8.6222 12.6047 8.6222 12.6025C8.62401 12.5938 8.62401 12.5851 8.62401 12.5768C8.62509 12.5565 8.6269 12.5392 8.6269 12.5203C8.63341 12.3691 8.63341 12.216 8.63341 12.0612V0.526367H11.6164ZM11.6164 0.526367L11.7469 1.18722C11.6164 0.526544 11.6117 0.526367 11.6164 0.526367Z" stroke="black"/>
</svg>
