<svg width="67" height="23" viewBox="0 0 67 23" fill="none" xmlns="http://www.w3.org/2000/svg">
<path d="M28.9315 22.1363H23.572L26.9242 1.33521H32.2834L28.9315 22.1363Z" fill="black"/>
<path d="M48.3602 1.84384C47.3031 1.42296 45.6264 0.958252 43.5532 0.958252C38.2605 0.958252 34.5334 3.79059 34.5106 7.83998C34.4666 10.8276 37.179 12.487 39.2077 13.4832C41.2812 14.5011 41.9861 15.1655 41.9861 16.0729C41.965 17.4664 40.3106 18.1088 38.7675 18.1088C36.6278 18.1088 35.4813 17.7776 33.7389 17.0023L33.0332 16.6699L32.2832 21.3393C33.5402 21.914 35.8561 22.424 38.2605 22.4464C43.884 22.4464 47.5452 19.6579 47.5885 15.3426C47.6099 12.9747 46.1777 11.1603 43.0898 9.67762C41.2153 8.72586 40.0673 8.0841 40.0673 7.11028C40.0893 6.22499 41.0383 5.31823 43.1543 5.31823C44.8966 5.27382 46.1768 5.69411 47.1466 6.1147L47.6313 6.33558L48.3602 1.84384Z" fill="black"/>
<path d="M55.4834 14.7672C55.9248 13.5722 57.6232 8.94722 57.6232 8.94722C57.6009 8.99163 58.0637 7.73017 58.3283 6.95576L58.7029 8.74811C58.7029 8.74811 59.7178 13.7272 59.9382 14.7672C59.1006 14.7672 56.542 14.7672 55.4834 14.7672ZM62.099 1.33521H57.9535C56.6751 1.33521 55.7038 1.71109 55.1522 3.06108L47.1914 22.136H52.815C52.815 22.136 53.7408 19.5686 53.9398 19.0157C54.5567 19.0157 60.0273 19.0157 60.8209 19.0157C60.9748 19.746 61.4604 22.136 61.4604 22.136H66.4228L62.099 1.33521Z" fill="black"/>
<path d="M19.0954 1.33521L13.8467 15.5195L13.2731 12.6428C12.3028 9.3234 9.25945 5.71695 5.86328 3.92372L10.6709 22.1142H16.3384L24.7626 1.33521H19.0954Z" fill="black"/>
<path d="M8.97307 1.33521H0.350178L0.261963 1.7555C6.98836 3.48166 11.4431 7.64252 13.2734 12.6437L11.3989 3.08373C11.0903 1.7552 10.1419 1.37903 8.97307 1.33521Z" fill="black"/>
</svg>
