<svg width="24" height="24" viewBox="0 0 24 24" fill="none" xmlns="http://www.w3.org/2000/svg">
<path d="M20.6221 17.25C21.4971 15.788 22 14.0777 22 12.25C22 9.98721 21.2292 7.90445 19.9358 6.25M20.6221 17.25C19.3764 19.3314 17.3765 20.9095 15 21.6068M20.6221 17.25C14.3197 18.85 6.83333 17.9167 3.87793 17.25M3.87793 17.25C3.00292 15.788 2.5 14.0777 2.5 12.25C2.5 10.2096 3.12676 8.3156 4.19825 6.75M3.87793 17.25C5.12365 19.3314 7.12351 20.9095 9.5 21.6068M4.19825 6.75C5.30672 5.13038 6.89114 3.86222 8.75 3.14705M4.19825 6.75C6.50601 6 12.8844 4.85 19.9358 6.25M19.9358 6.25C18.6971 4.66556 16.9792 3.47395 15 2.89321M15 2.89321C14.1278 2.63729 13.205 2.5 12.25 2.5C11.0164 2.5 9.83634 2.72909 8.75 3.14705M15 2.89321C16.8333 6.75 19.4 15.8922 15 21.6068M15 21.6068C14.1278 21.8627 13.205 22 12.25 22C11.295 22 10.3722 21.8627 9.5 21.6068M8.75 3.14705C7.33333 7.58589 5.5 17.4922 9.5 21.6068" stroke="black"/>
</svg>
