<svg width="22" height="22" viewBox="0 0 22 22" fill="none" xmlns="http://www.w3.org/2000/svg">
<path d="M6.17601 5.283L6.17614 5.28313C6.51504 4.96206 6.93283 4.72944 7.40711 4.77555C7.88167 4.82169 8.25672 5.13169 8.54485 5.53743L8.54628 5.53944L8.54627 5.53945L9.85209 7.39769L9.85504 7.4019L9.85502 7.40191C10.1057 7.76654 10.2664 8.14522 10.211 8.55786C10.1578 8.95341 9.91846 9.26608 9.66942 9.53145L9.33346 9.90017C9.50641 10.2011 9.98306 10.7726 10.5398 11.3294C10.5398 11.3294 10.5398 11.3294 10.5398 11.3294M6.17601 5.283L10.5398 11.3294M6.17601 5.283L6.16646 5.29255M6.17601 5.283L6.16646 5.29255M10.5398 11.3294C11.115 11.9046 11.667 12.362 11.9899 12.5511M10.5398 11.3294L11.9899 12.5511M11.9899 12.5511L12.34 12.2173C12.6015 11.9616 12.9152 11.7209 13.3119 11.6639C13.7266 11.6043 14.1098 11.7605 14.4733 12.0184L11.9899 12.5511ZM6.16646 5.29255C6.11583 5.34319 6.06215 5.39455 6.00364 5.45052M6.16646 5.29255L6.00364 5.45052M16.3715 13.344L16.3774 13.3483C16.7434 13.6156 17.0645 13.9809 17.1268 14.4496C17.192 14.9396 16.9557 15.3764 16.569 15.7306C16.5257 15.7743 16.4826 15.8214 16.4317 15.8772L16.4285 15.8807C16.3778 15.9363 16.3186 16.0011 16.2552 16.0644L16.2543 16.0654C15.1292 17.1844 13.6418 17.2237 12.2022 16.7118C10.772 16.2032 9.29948 15.1293 8.02506 13.855C6.75011 12.5851 5.67592 11.1122 5.16854 9.68029C4.65787 8.23901 4.70025 6.74877 5.82486 5.62412L16.3715 13.344ZM16.3715 13.344L16.3654 13.3399M16.3715 13.344L16.3654 13.3399M16.3654 13.3399C15.8551 12.9896 15.3349 12.6295 14.4734 12.0185L16.3654 13.3399ZM6.00364 5.45052L6.00212 5.45197M6.00364 5.45052L6.00212 5.45197M6.00212 5.45197C5.94553 5.5061 5.88426 5.5647 5.82493 5.62405L6.00212 5.45197ZM20.7455 10.9999C20.7455 16.3186 16.3186 20.7454 10.9999 20.7454C5.67147 20.7454 1.25439 16.319 1.25439 10.9999C1.25439 5.67051 5.66172 1.25439 10.9899 1.25439C16.3096 1.25439 20.7455 5.67211 20.7455 10.9999Z" stroke="black"/>
</svg>
