<?xml version="1.0" encoding="UTF-8"?>
<svg id="Layer_1" data-name="Layer 1" xmlns="http://www.w3.org/2000/svg" viewBox="0 0 1080 1080">
  <defs>
    <style>
      .cls-1 {
        fill: #141313;
      }

      .cls-2 {
        fill: #262626;
      }

      .cls-3 {
        fill: #4b4141;
      }

      .cls-4 {
        fill: #0f0f0f;
      }

      .cls-5 {
        fill: #fff;
      }

      .cls-6 {
        fill: #090909;
      }

      .cls-7 {
        fill: #fcfdfd;
      }

      .cls-8 {
        fill: #fafafa;
      }

      .cls-9 {
        fill: #0c0c0c;
      }

      .cls-10 {
        fill: #040404;
      }

      .cls-11 {
        fill: #0e0d0d;
      }

      .cls-12 {
        fill: #565c5c;
      }

      .cls-13 {
        fill: #323232;
      }

      .cls-14 {
        fill: #020202;
      }

      .cls-15 {
        fill: #151515;
      }

      .cls-16 {
        fill: #0a0a0a;
      }

      .cls-17 {
        fill: #303030;
      }

      .cls-18 {
        fill: #050404;
      }

      .cls-19 {
        fill: #6a6363;
      }

      .cls-20 {
        fill: #0d0c0c;
      }

      .cls-21 {
        fill: #575050;
      }

      .cls-22 {
        fill: #0b0a0a;
      }

      .cls-23 {
        fill: #383737;
      }

      .cls-24 {
        fill: #111;
      }

      .cls-25 {
        fill: #101010;
      }

      .cls-26 {
        fill: #0d0d0d;
      }

      .cls-27 {
        fill: #695c5c;
      }

      .cls-28 {
        fill: #080808;
      }

      .cls-29 {
        fill: #151414;
      }

      .cls-30 {
        fill: #121111;
      }

      .cls-31 {
        fill: #616060;
      }

      .cls-32 {
        fill: #0e0e0e;
      }

      .cls-33 {
        fill: #adadad;
      }

      .cls-34 {
        fill: #121212;
      }

      .cls-35 {
        fill: #373737;
      }

      .cls-36 {
        fill: #050505;
      }

      .cls-37 {
        fill: #161616;
      }

      .cls-38 {
        fill: #292929;
      }

      .cls-39 {
        fill: #0b0b0b;
      }

      .cls-40 {
        fill: #3f3e3e;
      }

      .cls-41 {
        fill: #191919;
      }

      .cls-42 {
        fill: #020101;
      }

      .cls-43 {
        fill: #7c7e7e;
      }

      .cls-44 {
        fill: #070707;
      }

      .cls-45 {
        fill: #b2bcbc;
      }

      .cls-46 {
        fill: #171616;
      }

      .cls-47 {
        fill: #282727;
      }

      .cls-48 {
        fill: #010101;
      }

      .cls-49 {
        fill: #242323;
      }

      .cls-50 {
        fill: #060606;
      }
    </style>
  </defs>
  <path d="M572.36,530.31c-33.32,0-66.63,0-99.95,0-3.71,0-4.12-.37-4.12-4.02,0-29.14-.01-58.28,.01-87.41,0-4.97,1.81-6.74,6.71-6.77,3.39-.02,6.78-.02,10.16-.01,3,.01,3.47,.48,3.55,3.56,.03,1.24,0,2.48,0,3.73,0,22.02,0,44.05,0,66.07,0,.68-.03,1.36,.03,2.03,.1,1.3,.79,2.09,2.13,2.19,.79,.06,1.58,.06,2.37,.06,53.64,0,107.29,0,160.93,0,.56,0,1.13-.01,1.69,0,1.68,.03,2.54-.85,2.54-2.47,.02-5.19,.01-10.39-.02-15.58-.01-1.49-.84-2.27-2.35-2.28-1.02,0-2.03,.02-3.05,.02-48.68,0-97.35,.01-146.03,.01-3.72,0-4.03-.33-4.03-4.07,0-15.25,0-30.49,.01-45.74,0-.9-.05-1.82,.07-2.71,.39-2.8,2.4-4.65,5.23-4.89,.56-.05,1.13-.02,1.69-.02,55.23,0,110.45-.02,165.68-.02,3.49,0,3.92,.4,3.95,3.86,.03,3.61,.06,7.23-.02,10.84-.08,3.78-2.13,5.82-5.88,5.95-1.35,.05-2.71,0-4.07,0-47.21,0-94.41,0-141.62,0-3.95,0-4.33,.36-4.34,4.19,0,2.94-.03,5.87,.02,8.81,.05,3.05,.49,3.44,3.63,3.44,20.55,0,41.11-.03,61.66-.03,28.23,0,56.47,0,84.7,0,.68,0,1.36-.02,2.03,0,2.88,.11,3.42,.58,3.42,3.36,0,17.17,.01,34.33-.04,51.5-.01,4.76-1.89,6.39-7.09,6.39-30.49,0-60.99,0-91.48-.01-2.71,0-5.42,0-8.13,0v.02Z"/>
  <path d="M463.05,612.71c-36.93,0-73.86,0-110.78,0-3.52,0-3.92-.32-3.92-3.84-.02-17.5-.03-35.01,0-52.51,0-4.07,1.21-5.29,5.24-5.29,18.86-.02,37.72-.02,56.58,0,3.47,0,3.8,.4,3.79,3.96,0,3.5,.03,7-.04,10.5-.08,4.12-1.92,5.99-6.05,6.01-11.41,.05-22.81,.01-34.22,.01-.68,0-1.36-.04-2.03,0-2.27,.12-2.8,.55-2.88,2.82-.1,2.71-.03,5.42-.04,8.13,0,2.15-.05,4.29,.01,6.44,.08,2.62,.65,3.19,3.19,3.27,1.24,.04,2.48,0,3.73,0,16.94,0,33.88,0,50.82,0,3.98,0,4.29-.26,4.29-4.2,.01-19.54,0-39.07,0-58.61,0-30.04,0-60.08,0-90.12,0-1.02-.04-2.04,.04-3.05,.17-2.21,1.62-3.95,3.81-4.03,4.74-.17,9.48-.1,14.23-.09,1.48,0,2.27,.88,2.39,2.32,.08,.9,.05,1.81,.05,2.71,0,49.91,0,99.83,0,149.74,0,.11,0,.23,0,.34-.23,4.19,.44,5.05,4.94,5.03,32.75-.09,65.5-.05,98.25-.04,.68,0,1.36,.06,2.03,0,1.93-.14,2.84-.79,2.87-2.61,.1-5.19,.05-10.39,0-15.58-.01-1.64-.99-2.46-2.6-2.49-1.24-.02-2.48,.04-3.73,.04-15.13,0-30.26,0-45.4,0-.79,0-1.58,.02-2.37-.06-1.41-.14-2.34-.84-2.34-2.36,0-4.29-.11-8.59,.1-12.87,.16-3.31,2.37-5.17,5.86-5.19,8.24-.04,16.49-.01,24.73-.02,14,0,28.01,0,42.01,0,.9,0,1.81-.02,2.7,.09,1,.13,1.62,.76,1.73,1.79,.06,.56,.04,1.13,.04,1.69,0,17.05,0,34.1-.03,51.16,0,1.45,.24,3-.73,4.26-1.2,1.57-2.65,2.75-4.83,2.66-1.58-.07-3.16-.01-4.74-.01-35.57,0-71.14,0-106.72,0h0Z"/>
  <path class="cls-48" d="M627.92,612.86c-9.03,0-18.06,0-27.08,0-3.45,0-3.9-.41-3.93-3.88-.03-4.29-.03-8.58,0-12.86,.02-3.36,.62-3.94,3.95-3.94,11.96,0,23.92,0,35.89,.02,4.09,0,4.44-.32,4.45-4.43,0-4.18,.03-8.35-.01-12.53-.03-3.26-.51-3.71-3.75-3.71-11.62,0-23.25,.02-34.87,.03-.79,0-1.58,0-2.37,0-1.66,0-2.54-.85-2.54-2.48-.01-4.4-.09-8.81,.09-13.2,.13-3.03,1.98-4.68,5.06-4.78,3.27-.1,6.54-.03,9.82-.03,14.9,0,29.79,0,44.69-.01,.79,0,1.58-.01,2.37,.04,1.33,.09,2.04,.84,2.11,2.17,.03,.56,.02,1.13,.02,1.69,0,16.93,0,33.85-.02,50.78,0,1.57,.19,3.18-.87,4.56-1.41,1.82-3.19,2.62-5.56,2.6-9.14-.09-18.28-.03-27.42-.03h0Z"/>
  <path class="cls-3" d="M545.46,650.93c-64.36,0-128.72,0-193.07,0-3.87,0-4.4-.47-4.43-4.18-.03-3.73-.05-7.45,.02-11.18,.08-4.12,2.17-6.14,6.33-6.23,1.81-.04,3.61,0,5.42,0,120.02,0,240.04,0,360.06,0,.45,0,.9,.01,1.35,0,3.08-.06,3.58-.58,3.56-3.53-.02-3.04,.03-6.09,0-9.13-.02-3.05-.43-3.48-3.57-3.49-12.53-.02-25.07,0-37.6,0-.79,0-1.58,.04-2.37-.02-1.44-.11-2.28-.91-2.38-2.36-.06-.9-.05-1.81-.05-2.71,0-17.61,0-35.23,0-52.84,0-.68-.02-1.36,.02-2.03,.08-1.48,.92-2.25,2.36-2.37,.67-.06,1.35-.04,2.03-.04,19.53,0,39.07,0,58.6,0,.56,0,1.13,0,1.69,0,1.62,.02,2.54,.79,2.59,2.46,.02,.68,.02,1.35,.02,2.03,0,29.02-.14,58.04,.09,87.05,.06,6.88-3.22,8.66-8.62,8.65-64.02-.12-128.04-.08-192.06-.08h0Z"/>
  <path class="cls-44" d="M745.68,498.53c0,8.36,.02,16.71,0,25.07-.02,4.84-1.92,6.73-6.81,6.74-12.42,.03-24.84,.03-37.26,.01-3.08,0-3.61-.5-3.65-3.47-.05-3.84-.07-7.68,.02-11.52,.08-3.53,2.21-5.62,5.78-5.67,5.76-.07,11.52,0,17.28-.02,3.48-.01,3.88-.44,3.89-3.9,0-9.82,0-19.65-.01-29.47,0-.9-.05-1.82,.07-2.71,.38-2.69,2.01-4.48,4.62-4.58,4.51-.16,9.03-.15,13.55-.05,2.13,.05,2.54,.73,2.55,3.48,.02,8.69,0,17.39,0,26.08h-.02Z"/>
  <path class="cls-12" d="M585.9,379.43c-2.63-2.63-5.23-5.28-7.89-7.87-4.99-4.87-10.74-8.66-17.22-11.12-8.2-3.11-16.62-3.69-25.23-1.29-11.92,3.33-20.99,10.67-28.73,19.9-9.08,10.82-15.75,23.05-20.71,36.24-.12,.32-.21,.65-.36,.95-.52,1.12-.98,2.47-2.54,2.27-1.41-.18-1.49-1.51-1.73-2.6-2.19-10.24-2.59-20.59-1.55-30.99,1.04-10.38,4.26-20.04,10.13-28.74,.37-.55,.82-1.1,.55-1.88-.88-.7-1.73-.17-2.51,.18-16.73,7.48-30.69,18.71-43.25,31.88-8.5,8.91-16.24,18.44-23.25,28.56-1.03,1.48-1.91,3.06-2.91,4.57-.68,1.02-1.61,1.72-2.84,1.04-1.1-.61-.94-1.77-.65-2.73,1.85-6.16,3.54-12.37,5.7-18.42,3.64-10.2,7.98-20.12,13.19-29.64,7.83-14.29,16.81-27.76,28.02-39.66,.54-.57,1.06-1.17,1.55-1.78,.12-.15,.07-.42,.12-.83-1.74-.64-3.25,.41-4.71,.9-15.22,5.21-29.46,12.42-42.8,21.41-18.76,12.64-35.11,27.9-49.37,45.42-5.98,7.36-11.76,14.85-16.29,23.23-.11,.2-.21,.41-.36,.57-.75,.82-1.44,2.01-2.75,1.51-1.48-.57-1.28-1.98-1.03-3.2,4.65-22.13,11.98-43.24,24.14-62.45,2.82-4.46,5.64-8.95,9.28-12.84,.5-.35,.84-1.23,1.66-.48,.44,1.15-.28,1.93-.89,2.74-7.07,9.42-13.02,19.49-17.98,30.18-5.59,12.03-9.84,24.84-13.32,41.35,5.24-8.67,11.25-16.52,17.51-24.19,6.3-7.7,13.06-14.99,20.37-21.72,20.29-18.68,42.94-33.68,69.03-43.1,2.12-.77,4.29-1.4,6.43-2.12,1.57-.52,3.25-.56,4.21,1.11,.92,1.59-.12,2.84-1.19,3.87-5.4,5.18-10.04,11-14.43,17.03-14.07,19.35-24.67,40.42-31.35,63.42-.57,1.95-1.31,3.83-1.86,5.89,6.03-8.89,12.38-17.44,19.61-25.23,12.77-13.78,26.13-26.92,43.31-35.33,2.74-1.34,5.44-2.74,8.3-3.83,1.29-.49,2.63-1.06,3.75,.21,1.2,1.37,.59,2.79-.26,4.04-3.5,5.19-6.26,10.72-7.93,16.76-1.56,5.65-3.03,11.34-3.03,17.27,0,8-.52,16.05,2.15,24.34,2.62-6.77,5.49-13.04,8.97-19,7.99-13.7,17.36-26.17,31.62-34.03,14.66-8.08,29.26-7.76,43.83,.4,6.61,3.7,11.9,8.91,17.04,14.32,.9,.95,2.09,1.88,1.34,3.5-.31,.23-.62,.23-.93,0Z"/>
  <path class="cls-19" d="M741.21,417.98c-12.76-21.33-29.34-39.35-48.25-55.3-12.27-10.35-25.69-19.02-40.11-26.08-7.18-3.52-14.6-6.5-22.24-8.89-.72-.23-1.44-.74-2.22-.11-.13,1.08,.74,1.58,1.34,2.21,7.94,8.23,14.59,17.43,20.71,27.06,8.69,13.66,15.67,28.15,21.05,43.4,1.95,5.52,3.48,11.2,5.19,16.8,.1,.32,.2,.65,.23,.99,.12,1.14,.27,2.42-1.05,2.91-1.16,.43-1.89-.54-2.44-1.39-3.13-4.82-6.34-9.58-9.89-14.12-11.87-15.17-24.93-29.12-40.76-40.29-5.91-4.17-12.23-7.58-18.78-10.6-.4-.19-.86-.34-1.29-.35-.83-.02-1.29,.41-.97,1.27,.19,.52,.55,.98,.86,1.45,4.02,6.22,6.62,13.01,8.33,20.21,2.52,10.61,2.04,21.28,.96,31.97-.25,2.46-.84,4.89-1.29,7.33-.19,1.05-.53,2.04-1.78,2.16-1.18,.11-1.89-.73-2.32-1.67-.85-1.84-1.31-3.82-2.1-5.7-4.13-9.81-9.29-19.04-15.56-27.64-.33-.45-.57-.96-.85-1.45,.13-.11,.25-.22,.38-.34,2.01-.31,2.75,1.31,3.64,2.53,6.31,8.73,11.38,18.15,15.35,28.16,.24,.62,.36,1.29,1.08,2.13,.68-3.05,1.11-5.87,1.37-8.67,1.6-17.2,.09-33.83-9.65-48.8-.96-1.47-1.95-3.07-.73-4.66,1.3-1.7,3.13-.78,4.67-.17,11.06,4.34,20.76,10.93,29.74,18.54,13.48,11.43,25.27,24.46,35.65,38.77,1.53,2.1,2.69,4.43,4.58,7.1-2.52-9.93-5.68-18.97-9.4-27.81-6.95-16.51-15.74-31.98-26.7-46.18-2.83-3.66-5.8-7.21-9.08-10.48-.88-.88-1.78-1.73-2.61-2.66-1-1.12-2.03-2.35-1.04-3.9,1.03-1.61,2.72-1.58,4.25-.96,3.87,1.57,7.87,2.79,11.75,4.33,23.03,9.17,43.25,22.65,61.57,39.28,14.22,12.9,26.47,27.39,37.15,43.28,1.01,1.5,1.71,3.16,3.13,5.06-2.12-13.33-6.03-25.59-11.06-37.51-5.73-13.59-13.07-26.24-22.44-37.67-.78-.95-1.63-1.89-1.95-3.14-.03-.34,.03-.66,.18-.96,2.36-.28,3.08,1.84,4.18,3.13,1.49,1.75,2.9,3.62,4.09,5.63v.02c7.32,10.04,13.19,20.87,18.15,32.24,4.01,9.19,6.88,18.75,9.53,28.37,.86,3.13,1.23,6.4,1.87,9.6,.31,1.54,.95,3.33-1.1,4.04-2.03,.7-2.69-1-3.32-2.48Z"/>
  <path class="cls-43" d="M381.37,341.4c-.48,.21-.95,.42-1.43,.64,.24-1.83,1.74-2.88,2.78-4.13,11.19-13.43,24.1-24.94,38.72-34.55,10.57-6.95,21.77-12.65,33.41-17.54,1.97-.83,4.02-1.49,6.03-2.23,.61-.22,1.27-.38,1.52-1.1-.21-.21-.36-.48-.51-.48-5.62-.2-11.21-1.22-16.87-.48-3.8,.49-7.66,.23-11.48,.79-8.14,1.21-16.17,2.83-24.07,5.24-7.35,2.25-14.45,5-21.27,8.5-3.91,2.01-7.65,4.3-11.24,6.84-.27,.19-.49,.48-.77,.67-.99,.68-2.14,1.04-3.14,.28-1.06-.81-.88-2.09-.33-3.1,1.99-3.66,3.88-7.4,6.35-10.78,10.38-14.21,23.71-24.85,39.26-32.95,9.65-5.03,19.77-8.78,30.25-11.43,12.94-3.27,26.13-4.96,39.53-4.58,.44,.01,.88-.07,1.29-.11,.64-1.23-.31-1.77-.96-2.25-5.12-3.78-10.7-6.64-16.82-8.43-.64-.19-1.34-.32-1.89-.66-1.95-1.22-1.94-3.11,.07-4.17,6.47-3.4,13.35-5.4,20.66-5.89,6.93-.47,13.78,.19,20.43,2.14,5.4,1.58,10.65,3.63,15.2,7.12,2.14,1.64,3.01,1.29,3.74-1.29,2.04-7.2,4.94-14.02,8.92-20.37,1.45-2.31,3.19-4.38,5.14-6.26,1.85-1.79,3.07-1.79,4.91,0,.87,.85,1.95,1.59,2.13,2.95-.32,.41-.76,.5-1.25,.44-1.22-.38-1.87-1.44-2.7-2.28-.43-.37-.89-.44-1.39-.13-.91,.66-1.63,1.52-2.43,2.29-.7,.67-1.37,1.37-1.86,2.22-.14,.24-.29,.46-.45,.68-.41,.53-.78,1.09-1.1,1.68-.25,.48-.5,.95-.78,1.42-.37,.57-.76,1.13-1.09,1.73-.12,.25-.26,.49-.4,.73-.56,.97-1.01,2-1.49,3-.11,.26-.24,.51-.36,.75-.23,.51-.39,1.05-.56,1.58-.09,.28-.2,.55-.33,.81-.8,1.45-1.38,2.97-1.63,4.63-.07,.32-.17,.63-.28,.94-.37,1.19-.93,2.31-1.29,3.5-1.24,4.07-1.64,4.31-5.7,3.28-1.85-.97-3.73-1.89-5.23-3.39-.75-.94-1.77-1.34-2.94-1.43-.56-.09-1.08-.27-1.54-.61-.52-.43-1.1-.77-1.76-.96-.28-.08-.54-.18-.81-.28-1.14-.42-2.3-.72-3.48-1.01-.33-.07-.64-.17-.96-.28-8.51-2.01-17.06-2.7-25.66-.65-.31,.11-.62,.19-.94,.26-2.15,.09-4.11,.89-6.08,1.67-.27,.11-.54,.2-.82,.28-.53,.15-1.07,.29-1.59,.5-.24,.12-.49,.23-.74,.34-.6,.27-1.21,.54-1.77,.89-.2,.15-.39,.31-.57,.48-.21,.3-.26,.62-.1,.96,.25,.29,.55,.49,.88,.66,.75,.35,1.57,.4,2.35,.6,.29,.08,.56,.19,.83,.31,2.22,1.18,4.66,1.85,6.87,3.05,1.61,.85,3.21,1.73,4.74,2.74,.79,.57,1.62,1.08,2.46,1.6,.31,.2,.58,.43,.84,.68,.99,1.07,2.3,2.11,1.7,3.76-.64,1.77-2.37,1.49-3.78,1.46-9.02-.22-17.91,1.14-26.81,2.23-.34,.12-.69,.21-1.04,.27-5.56,.85-11.01,2.26-16.45,3.65-.29,.11-.6,.19-.91,.27-1.02,.23-2.02,.54-2.96,1.03-.26,.13-.54,.23-.82,.32-.7,.18-1.42,.28-2.11,.54-.27,.12-.55,.21-.84,.3-1.72,.59-3.42,1.22-4.98,2.18-6.95,3.74-14.37,6.53-20.99,10.94-13.32,8.85-25.12,19.12-32.88,33.41-.46,.85-1.3,1.55-1.12,2.96,6.54-4.49,13.47-7.93,20.63-10.99,13.09-5.59,26.74-8.72,40.84-10.27,8-.88,15.97-1.06,23.95-.01,.56,.07,1.13,.06,1.68,.18,1.49,.33,2.92,.82,3.02,2.66,.09,1.68-1.16,2.33-2.49,2.79-4.9,1.72-9.73,3.59-14.47,5.73-16.57,7.47-31.92,16.88-45.54,28.94-6.25,5.53-11.97,11.64-17.73,17.69-.95,.76-1.89,1.54-2.52,2.62-.48,.61-.98,1.17-1.81,1.27Z"/>
  <path class="cls-27" d="M549.46,203.83c.48-.02,.96-.03,1.44-.05,3.51,3.48,5.55,7.88,7.53,12.28,1.76,3.9,3.28,7.9,4.37,12.06,.59,2.27,1.41,2.47,3.36,1.15,13.52-9.16,28.29-11.61,44.17-8.27,4.01,.84,7.78,2.23,11.41,4.08,1.12,.57,2.4,.93,2.25,2.55-.17,1.73-1.57,1.99-2.89,2.36-5.02,1.4-9.72,3.56-14.1,6.38-1.32,.85-2.57,1.83-3.8,2.8-.42,.33-.88,.78-.61,1.43,.28,.68,.94,.53,1.47,.52,4.97-.14,9.93,.11,14.87,.52,9.68,.81,19.2,2.48,28.56,5.11,6.41,1.8,12.68,3.98,18.78,6.62,2.89,1.25,5.69,2.68,8.53,4.03,7.68,4.2,15.12,8.71,21.78,14.51,5.88,5.12,11.35,10.57,15.99,16.82,2.75,3.7,4.92,7.78,7.1,11.85,.58,1.1,.81,2.2-.27,3.04-1.05,.83-2.09,.45-3.06-.35-1.13-.93-2.42-1.64-3.58-2.54h0c-2.17-1.5-4.49-2.76-6.77-4.07h0c-7.83-3.98-15.91-7.33-24.37-9.73-9.21-2.62-18.54-4.56-28.13-5.19-6.63-.43-13.24-1-19.87,0-.76,.12-1.59-.08-2.41,.72,.92,1.68,2.77,1.93,4.27,2.68h.03c8.21,3.08,16.1,6.85,23.69,11.23,1.35,.78,2.81,1.38,4.08,2.31h.02c1.23,.5,2.36,1.15,3.27,2.14,.31,.56,.88,.57,1.41,.66,6.91,4.23,13.34,9.12,19.58,14.27,.37,.56,.79,1.05,1.43,1.32,1.88,.99,2.98,2.91,4.75,4.02h.02c3.7,3.08,7.08,6.47,10.15,10.16h.01c1.07,2.2,4.06,2.98,4.25,5.81-.05,.28-.09,.56-.14,.85-2.69-.29-3.71-2.69-5.19-4.34-13.47-15.08-29.45-26.89-47.13-36.5-8.54-4.64-17.41-8.58-26.6-11.76-1.39-.48-3.02-.95-2.8-2.85,.23-2.03,1.83-2.67,3.64-2.9,8.77-1.11,17.53-1,26.32-.08,17.35,1.82,33.85,6.44,49.4,14.42,3.59,1.84,6.91,4.17,11.15,6.5-2.2-4.72-4.61-8.47-7.35-11.95-9.05-11.52-20.26-20.5-33.04-27.58-13.87-7.68-28.76-12.55-44.32-15.11-8.87-1.46-17.83-2.83-26.92-2.44-1.94,.08-4.45,.56-5.22-1.97-.73-2.4,1.39-3.63,2.98-4.82,4.45-3.33,9.27-6.01,14.55-7.85,.91-.32,2.02-.29,2.78-1.47-3.53-2.39-7.63-3.22-11.55-4.48-5.55-1.63-11.22-.93-16.84-.92-.32,.12-.65,.2-.98,.26-1.26,.24-2.56,.13-3.8,.51-.29,.09-.59,.15-.89,.2-1,.14-2.03,.06-3.01,.38-.27,.1-.54,.18-.81,.25-1.08,.28-2.15,.63-3.2,1.03-.26,.11-.53,.2-.8,.28-.69,.19-1.34,.47-1.93,.89-3.05,1.54-6.18,2.96-8.98,4.95-.65,.42-1.31,.82-1.97,1.24-.27,.15-.56,.26-.87,.34-2.32,.23-2.82-1.42-3.26-3.14-.1-.27-.18-.56-.25-.84-.15-.55-.3-1.11-.5-1.65-.12-.27-.21-.54-.3-.82-.29-.98-.6-1.95-.96-2.9-.11-.26-.2-.53-.29-.8-.21-.69-.58-1.28-1.06-1.81-1.34-2.22-2.27-4.62-3.17-7.03-.15-.9-.62-1.62-1.32-2.2-1.33-2.39-3.79-4.14-4.05-7.14Z"/>
  <path class="cls-33" d="M382.47,468.05c9.37,0,18.74-.02,28.1,0,3.79,0,4.56,.76,4.57,4.57,.03,16.7,.06,33.41-.01,50.11-.03,6.19-3,8.97-9.29,8.98-17.83,.01-35.67,0-53.5,0-4.32,0-5.44-1.05-5.44-5.34-.02-16.7,0-33.41-.02-50.11,0-1.26,.16-2.47,.54-3.66,.98-3.11,2.61-4.43,5.93-4.52,3.27-.09,6.55-.04,9.82-.04,6.43,0,12.87,0,19.3,0Z"/>
  <path class="cls-4" d="M478.27,571.56c-2.48,0-4.96,0-7.44,0-1.66,0-2.54-.8-2.54-2.45,0-4.85-.06-9.69,.09-14.54,.07-2.33,1.31-3.48,3.7-3.53,4.84-.11,9.69-.1,14.54,0,1.91,.04,2.53,.77,2.56,2.8,.05,4.51,.09,9.02-.03,13.52-.08,3.12-1.23,4.12-4.44,4.2-2.14,.05-4.28,.01-6.42,.01h0Z"/>
  <path class="cls-50" d="M733.88,453c-2.03,0-4.06,.05-6.09-.01-2.13-.07-2.91-.73-2.95-2.84-.09-4.4-.12-8.8,.03-13.19,.1-2.95,2.04-4.85,4.98-4.94,4.39-.14,8.8-.05,13.2-.05,1.64,0,2.58,.83,2.59,2.46,.04,4.62,.12,9.25-.03,13.87-.08,2.52-2.31,4.45-4.96,4.65-1.12,.08-2.25,.02-3.38,.02-1.13,0-2.26,0-3.38,0v.04Z"/>
  <path class="cls-31" d="M379.72,453.59c-9.47,0-18.94-.01-28.41,0-2.77,0-3.64-.71-3.71-3.56-.09-3.72,.16-7.45-.07-11.16-.31-4.99,3.33-7.51,7.46-7.46,17.14,.19,34.28,.09,51.42,.09,1.58,0,3.16-.07,4.74,0,2.22,.09,3.2,.85,3.26,3.02,.13,4.51,.2,9.03-.03,13.52-.17,3.24-3,5.41-6.58,5.43-9.36,.03-18.72,.01-28.08,.01,0,.04,0,.08,0,.12Z"/>
  <path class="cls-45" d="M635.48,285.17c-2.12,.12-3.77-1.38-5.78-1.67-.42-.06-.75-.48-.74-1,0-.56,.44-.77,.85-.91,.53-.18,1.09-.3,1.64-.35,7.98-.7,15.96-.68,23.94,.11,8.2,.81,16.27,2.31,24.2,4.51,9.03,2.5,17.76,5.75,25.99,10.29,.17,.1,.26,.35,.39,.53-2,.27-3.31-1.22-4.9-1.96-6.82-3.19-13.87-5.94-21.13-7.78-8.99-2.28-18.05-4.54-27.48-4.6-3.24-.02-6.48-.54-9.75-.53-3.37,0-6.71,.15-10.13,.86,.31,1.63,2.35,1.24,2.89,2.5Z"/>
  <path class="cls-45" d="M741.21,417.98c1.07,.79,1.63,2.94,3.45,1.8,1.37-.86,.57-2.42,.38-3.73-1.39-9.62-4.21-18.89-7.43-28-3.8-10.73-8.68-21-14.66-30.7-2.01-3.25-4.16-6.42-6.27-9.61-.32-.48-.61-.94-.57-1.54,3.01,2.19,4.42,5.6,6.35,8.58,4.27,6.6,7.9,13.57,11.07,20.77,1.9,4.32,3.55,8.73,5.2,13.16,2.01,5.38,3.54,10.88,5.08,16.38,1.11,4,1.85,8.1,2.66,12.18,.51,2.58-.07,3.83-1.68,4.12-1.95,.35-2.99-.64-3.56-3.4Z"/>
  <path class="cls-45" d="M712.76,300.75c1.52,.24,2.56,1.33,3.75,2.15,.89,.61,1.85,1.08,2.73,.17,.75-.77,.31-1.67-.11-2.5-2.66-5.24-5.63-10.28-9.4-14.81-9.05-10.86-19.83-19.6-32.21-26.39-.97-.53-2.01-1.02-2.71-1.95,.69-.18,1.33-.03,1.94,.32,11.34,6.36,21.64,14.05,30.49,23.62,5.39,5.83,9.45,12.54,13.22,19.46,.59,1.08,.51,2.19-.37,3.12-.89,.95-2.14,1.21-3.06,.47-1.46-1.17-3.42-1.79-4.27-3.66Z"/>
  <path class="cls-45" d="M663.28,298.7c-3.49-1.03-6.36-3.29-9.56-4.9-5.72-2.88-11.58-5.44-17.44-8.02-.29-.13-.52-.4-.77-.61,2.72-.53,4.75,1.33,6.94,2.26,5.35,2.28,10.54,4.95,15.65,7.73,1.8,.98,4.03,1.52,5.18,3.53Z"/>
  <path class="cls-45" d="M687.57,315.77c-2.82-1.38-4.96-3.69-7.5-5.46-3.29-2.28-6.37-4.85-9.86-6.84-.88-.5-1.71-1.05-2.22-1.96,1.93,.08,3.26,1.43,4.68,2.41,4.43,3.07,8.74,6.32,13.05,9.56,.77,.58,1.72,1.14,1.85,2.29Z"/>
  <path class="cls-45" d="M708.17,337.08c-.51-1.42-1.79-2.23-2.66-3.37-.59-.77-1.56-1.29-1.59-2.44,.38,.22,.84,.36,1.13,.67,3.76,4.02,7.39,8.16,10.53,12.69,.33,.48,.6,.94,.51,1.55-1.84-1.06-2.59-3.06-3.89-4.58-1.31-1.54-2.53-3.16-4.03-4.53Z"/>
  <path class="cls-45" d="M703.91,331.26c-3.68-3.08-7.05-6.48-10.15-10.14,.6-.08,1.1,.15,1.51,.56,2.7,2.69,5.39,5.38,8.07,8.07,.41,.41,.64,.91,.57,1.51Z"/>
  <path class="cls-45" d="M705.99,296.68c2.61,.77,4.91,2.06,6.77,4.07-2.66-.69-4.88-2.11-6.77-4.07Z"/>
  <path class="cls-45" d="M693.75,321.11c-2.06-.77-3.4-2.4-4.75-4.02,2.36,.42,3.55,2.23,4.75,4.02Z"/>
  <path class="cls-45" d="M666.58,300.84c-1.27-.43-2.38-1.11-3.27-2.12,1.59-.05,2.81,.45,3.27,2.12Z"/>
  <path class="cls-19" d="M585.9,379.43c.29-.03,.59-.05,.88-.08,1.14,.42,1.84,1.13,1.55,2.46-.12,.11-.23,.23-.35,.34-.89-.76-1.91-1.41-2.09-2.72Z"/>
  <path d="M546.08,649.06c-64.25,0-128.51,0-192.76,0-.68,0-1.36-.01-2.03,0-1.3,.02-1.8-.67-1.8-1.9,.01-4.18-.06-8.36,.04-12.53,.05-2.08,1.07-3.02,3.15-3.23,.9-.09,1.81-.05,2.71-.05,121.28,0,242.57,0,363.85,.03,6.12,0,7.51-.95,7.15-7.14-.16-2.7,0-5.42-.03-8.13-.04-3.63-.76-4.39-4.37-4.4-12.42-.03-24.84-.01-37.27,0-.45,0-.9,.02-1.36,0-2.79-.06-3.02-.25-3.03-3.17-.02-17.73-.02-35.46,0-53.19,0-2.92,.22-3.16,3.01-3.17,19.54-.02,39.07-.03,58.61-.01,2.66,0,2.66,.06,2.66,3.39,0,25.52,0,51.04-.01,76.56,0,4.07,.04,8.13-.01,12.2-.04,3.4-1.32,4.65-4.72,4.73-1.69,.04-3.39,0-5.08,0-62.9,0-125.8,0-188.7,0Z"/>
  <path d="M588.33,381.81c-.03-1.13-1.1-1.6-1.55-2.46,0-.73-.43-1.26-.89-1.77-6.48-7.15-13.52-13.57-22.44-17.63-7.17-3.27-14.67-4.29-22.44-3.38-11.09,1.29-20.12,6.76-28.12,14.19-6.82,6.34-12.44,13.62-17.2,21.63-4.21,7.09-8.02,14.33-10.76,22.12-.24,.69-.31,1.59-1.7,1.8-.7-3.93-1.79-7.84-2.01-11.79-.39-7.2-.75-14.44,.42-21.62,1.43-8.73,3.98-17.08,8.66-24.68,.76-1.24,1.67-2.4,2.39-3.66,.46-.8,.64-1.74-.22-2.47-.72-.6-1.42-.28-2.19,.04-11.74,4.84-22.36,11.45-32.02,19.7-6.45,5.51-12.4,11.53-18.2,17.68-7.28,7.72-13.6,16.22-19.83,24.78-1,1.38-1.2,3.37-2.98,4.19-.73-.78-.37-1.41-.19-2.05,4.52-15.99,10.36-31.48,18.33-46.08,8.22-15.06,17.68-29.28,29.9-41.47,.32-.32,.67-.62,.92-.99,.96-1.41,.36-2.67-1.37-2.81-.55-.04-1.16,0-1.66,.19-7.52,2.96-15.2,5.47-22.49,9.03-6.68,3.25-13.24,6.7-19.53,10.64-16.71,10.47-31.68,23.07-45.08,37.5-7.9,8.51-15.14,17.58-21.73,27.16-1.47,2.14-2.78,4.36-4.03,6.63-.42,.76-.68,1.7-2.2,2.02,.64-3.19,1.1-6.21,1.87-9.16,1.5-5.76,2.94-11.54,4.89-17.19,2.1-6.07,4.46-12.03,7.07-17.89,2.61-5.88,5.75-11.48,9.05-16.97,2.78-4.62,5.78-9.13,9.16-13.35,.56-.7,1.31-1.27,1.23-2.31,.44-.49,.89-.97,1.33-1.46,.8-.78,1.41-1.72,2.13-2.57,13.9-15.96,29.89-29.33,48.49-39.55,9.69-5.33,19.61-10.07,30.13-13.52,.96-.32,2.08-.6,1.99-1.92-.09-1.26-1.16-1.63-2.17-1.77-2.68-.35-5.37-.66-8.07-.84-9.75-.65-19.42,.46-28.97,2.13-12.58,2.19-24.74,5.99-36.23,11.64-4.43,2.18-8.8,4.52-12.78,7.53-.82,.62-1.57,1.69-2.88,1.46-.71-.84-.08-1.5,.25-2.18,2.62-5.26,5.71-10.24,9.52-14.72,11.05-13.03,24.47-22.87,40.05-29.86,2.24-1,4.72-1.59,6.68-3.2,1.96-.26,3.66-1.24,5.46-1.94h0c.76-.77,1.93,.05,2.69-.7h0c1.09-.56,2.3-.82,3.42-1.31h0c5.82-1.59,11.72-2.8,17.61-4.08h0c5.12-.42,10.19-1.28,15.3-1.82,4.71-.5,9.39-.55,14.1-.59,.78,0,1.65,.13,2.09-.73,.51-.99-.08-1.71-.73-2.38-.71-.72-1.39-1.48-2.33-1.93l-.04-.02c-.56-.59-1.32-.9-1.98-1.33-1.61-.91-3.22-1.81-4.84-2.72-2.11-1.85-4.98-2.11-7.32-3.47h-.02c-.79-.69-1.92,.06-2.71-.64-.51-.13-1.09-.12-1.39-.68-.64-1-.07-1.53,.76-1.96h0c.84-.59,1.89-.74,2.72-1.35h0c.48-.74,1.46-.12,1.99-.74h0c2.3-.56,4.38-1.82,6.78-2.02h0c9.3-2.06,18.55-1.54,27.75,.66h0c1.25,.76,2.73,.83,4.07,1.35h0c.51,.64,1.53,0,1.98,.78,.27,.53,.76,.65,1.3,.69,1.15,.42,2.44,.5,3.39,1.42,1.31,1.51,3.38,1.91,4.81,3.25,3.78,2.06,4.15,1.85,5.23-2.2,.41-1.56,1.23-3.02,1.61-4.61h0c.47-1.88,1.25-3.65,2.07-5.4h0c.59-.54-.01-1.51,.73-2h0c.82-1.28,1.36-2.71,2.01-4.08h0c.4-.7,.85-1.38,1.24-2.09,.16-.5,.18-1.08,.69-1.41,.64-.53,.88-1.35,1.42-1.94h0c.6-.96,1.41-1.77,2.02-2.72,.7-1.12,1.66-2,2.67-2.82,.69-.19,1.41-.55,1.95,.28,.72,.84,1.44,1.68,2.16,2.52,1.52,2.28,3.04,4.57,4.56,6.85,.72,.53,1.04,1.34,1.46,2.08,.64,2.66,2.06,4.98,3.15,7.45,1.06,.29,.31,1.46,.95,1.96v-.02c.53,1.33,.63,2.82,1.35,4.09v-.02c.65,.54,.1,1.49,.67,2.06v-.02c.83,1.44-.2,4.78,3.43,3.37h0c.62-.46,1.35-.79,1.87-1.38,1.93-1.64,4.1-2.93,6.44-3.85,1.13-.45,2.19-.98,3.22-1.61,.61-.48,1.47-.03,2.06-.56h-.02c1.32-.57,2.81-.64,4.08-1.36h-.02c1.03-.86,2.41,.06,3.48-.66,.19,.05,.38,.04,.57-.03,1.26-.89,2.83,.15,4.1-.68h-.02c6.13-.69,12.23-.71,18.28,.66,4.14,.73,8,2.26,11.77,4.07,.59,.28,1.42,.36,1.29,1.26-.11,.75-.78,1.12-1.45,1.24-3.93,.75-7.46,2.51-10.91,4.4-3.06,1.67-6.04,3.51-8.56,5.98-.68,.67-1.24,1.4-.77,2.38,.38,.79,1.16,1.02,2,1.02,.56,0,1.13,.01,1.69,0,7.69-.25,15.27,.84,22.9,1.64,4.96,.52,9.76,1.71,14.62,2.61,5.05,.93,10,2.63,14.88,4.32,7.14,2.47,14.02,5.57,20.62,9.25,11.59,6.47,21.89,14.54,30.56,24.67,3.39,3.97,6.18,8.3,8.84,12.75,.74,1.24,1.24,2.56,1.5,3.97-1.26,.53-1.96-.26-2.6-.74-6.46-4.8-13.68-8.22-21.03-11.31-6.22-2.62-12.72-4.59-19.27-6.15-6.22-1.48-12.58-2.41-18.96-3.19-6.53-.8-13.05-.75-19.59-.6-2.47,.06-4.93,.46-7.39,.74-.43,.05-.89,.21-1.26,.43-.7,.42-1.3,.99-1.2,1.88,.1,.92,.87,1.33,1.65,1.49,1.56,.33,2.99,.98,4.47,1.52,13.8,5.03,26.74,11.77,38.93,19.92,13.17,8.81,25.04,19.14,35.3,31.26,.29,.34,.62,.64,.92,.95,4.23,5.55,8.54,11.05,12.25,16.97,6.18,9.86,11.29,20.24,15.39,31.14,2.9,7.71,5.12,15.62,7.12,23.59,.7,2.79,1.12,5.67,1.17,8.81-1.82-.52-2.14-2.02-2.76-3.08-5.18-8.89-11.55-16.89-18.14-24.73-5.01-5.96-10.22-11.76-15.9-17.09-10.52-9.89-21.57-19.1-33.8-26.87-8.95-5.68-18.17-10.8-27.89-14.97-4.21-1.81-8.46-3.67-12.97-4.78-.97-.24-1.87-.79-2.77-1.24-.83-.41-1.69-.65-2.61-.52-1.55,.22-2.11,1.38-1.24,2.67,.37,.55,.9,1,1.38,1.48,7.01,7.06,13.01,14.9,18.61,23.13,6.43,9.44,11.91,19.38,16.71,29.7,4.51,9.71,8.36,19.7,11.07,30.08,.53,2.02,1.79,3.87,1.66,6.2-1.6,.03-2.01-1.12-2.54-2.03-4.96-8.38-11.21-15.77-17.52-23.13-4.19-4.89-8.72-9.46-13.32-13.95-8.59-8.37-17.99-15.69-28.42-21.62-3.42-1.94-6.99-3.62-10.7-4.96-1.03-.37-2.24-1.16-3.04,.1-.64,1.01-.25,2.2,.5,3.15,2.34,2.94,3.84,6.32,5.39,9.7,2.51,5.48,3.88,11.25,4.77,17.18,1.32,8.89,1.24,17.76-.29,26.6-.29,1.68-.39,3.35-.51,5.04-.05,.78-.04,1.73-1.01,1.9-1.04,.18-1.23-.74-1.47-1.5-3.3-10.41-8.82-19.68-14.79-28.7-1.06-1.6-1.81-3.73-4.01-4.39Z"/>
  <path class="cls-21" d="M488.44,237.11c1.82,.07,2.67,1.55,3.63,2.71,.85,1.02,.34,2.29-.97,2.57-.97,.21-2,.17-3.01,.14-7.3-.24-14.51,.74-21.72,1.72-2.1,.28-4.24,.21-6.36,.3,1.43-1.28,3.22-.56,4.83-.87,7.38-1.47,14.86-1.89,22.37-1.88,1.27,0,3.01,.72,3.7-.7,.75-1.53-1.13-2.17-1.89-3.17-.2-.27-.39-.54-.58-.81Z"/>
  <path class="cls-21" d="M510.13,222.84c-2.45-.25-4.92-.37-7.34-.78-5.47-.93-10.91-.96-16.39,0-1.31,.23-2.68,.1-4.02,.13,4.43-1.75,9.1-2.11,13.75-1.88,4.22,.2,8.43,.85,12.57,1.81,.55,.13,1.1,.21,1.43,.73Z"/>
  <path class="cls-21" d="M460.02,244.54c-.64,.8-1.63,.75-2.48,.89-5.09,.85-9.93,2.86-15.13,3.2,2.21-1.35,4.77-1.76,7.2-2.22,3.46-.66,6.8-2.09,10.41-1.86Z"/>
  <path class="cls-21" d="M532.51,223.5c.24,2.64-1.47,4.79-1.84,7.32-.18,1.26-1.58,1.75-2.97,1.12-.81-.37-1.59-.79-2.04-1.62,.71-.11,1.27,.35,1.91,.49,1.82,.4,2.49,.04,2.8-1.8,.33-2.01,1.07-3.8,2.13-5.5Z"/>
  <path class="cls-21" d="M474.26,229.56c2.61,.79,5.48,1.03,7.32,3.47-2.44-1.14-5.24-1.54-7.32-3.47Z"/>
  <path class="cls-21" d="M482.38,222.18c-2.26,.67-4.27,2.2-6.78,2.02,2.07-1.3,4.21-2.4,6.78-2.02Z"/>
  <path class="cls-21" d="M436.3,250.63c-1.55,1.39-3.33,2.17-5.46,1.94,1.75-.85,3.41-1.95,5.46-1.94Z"/>
  <path class="cls-21" d="M534.58,218.1c-.05,2.05-1.17,3.68-2.07,5.41-.18-2.13,.66-3.88,2.07-5.41Z"/>
  <path class="cls-21" d="M537.31,212.01c-.17,1.61-.56,3.11-2.01,4.09,.19-1.6,.79-3,2.01-4.09Z"/>
  <path class="cls-21" d="M514.2,224.19c-1.57,.19-2.95-.17-4.07-1.35,1.53-.07,2.89,.36,4.07,1.35Z"/>
  <path class="cls-12" d="M384.83,337.38c-.23,1.25-.98,2.08-2.13,2.57,.18-1.29,.98-2.07,2.13-2.57Z"/>
  <path class="cls-21" d="M442.41,248.62c-.92,.99-2.04,1.48-3.42,1.31,.91-1.03,2.04-1.48,3.42-1.31Z"/>
  <path class="cls-21" d="M520.87,227.07c-1.2-.31-2.43-.53-3.39-1.42,1.41-.21,2.63,.07,3.39,1.42Z"/>
  <path class="cls-21" d="M542.68,203.85c0,1.4-.98,2.09-2.02,2.73,.03-1.39,.99-2.09,2.02-2.73Z"/>
  <path class="cls-21" d="M473.61,224.94c-.57,1.13-1.56,1.41-2.72,1.36,.64-.98,1.59-1.35,2.72-1.36Z"/>
  <path class="cls-21" d="M540.66,206.57c-.04,.97-.41,1.69-1.42,1.94,.12-.91,.54-1.6,1.42-1.94Z"/>
  <path class="cls-21" d="M538.54,209.92c.15,1.03-.33,1.69-1.24,2.1-.07-.99,.42-1.64,1.24-2.1Z"/>
  <path class="cls-21" d="M471.53,228.92c.97-.08,1.96-.22,2.71,.63-.97,.06-1.97,.26-2.71-.63Z"/>
  <path class="cls-21" d="M438.99,249.94c-.73,.88-1.74,.69-2.69,.7,.7-.98,1.73-.73,2.69-.7Z"/>
  <path class="cls-21" d="M470.9,226.29c-.25,.65-.51,1.31-.76,1.96-1.1-1.18-.75-1.79,.76-1.96Z"/>
  <path class="cls-21" d="M486.42,235.75c1.06-.15,1.61,.46,1.99,1.33-.96,0-1.56-.54-1.99-1.33Z"/>
  <path class="cls-21" d="M475.59,224.2c-.5,.67-1.24,.74-1.99,.74,.42-.89,1.2-.82,1.99-.74Z"/>
  <path class="cls-21" d="M547.3,201.31c-.65-.09-1.3-.19-1.95-.28,.77-.72,1.46-.91,1.95,.28Z"/>
  <path class="cls-21" d="M516.18,224.97c-.71-.14-1.49-.08-1.98-.78,.78-.06,1.6-.21,1.98,.78Z"/>
  <path class="cls-21" d="M535.3,216.1c.01,.76-.03,1.5-.73,2.01-.08-.78-.15-1.57,.73-2.01Z"/>
  <path class="cls-21" d="M609.08,222.16c-6.07-.93-12.18-.82-18.28-.65,.08-.08,.14-.23,.23-.24,6.07-.7,12.13-1.3,18.06,.89Z"/>
  <path class="cls-21" d="M565.03,231.63c-2.42,.75-2.97,.55-3.37-1.36-.14-.65-.05-1.34-.07-2.01,.36,.26,.65,.57,.67,1.04,.06,1.81,1.13,2.41,2.77,2.33Z"/>
  <path class="cls-21" d="M560.93,226.25c-1.2-1.12-1.36-2.58-1.36-4.09,1.02,1.17,1.4,2.56,1.36,4.09Z"/>
  <path class="cls-21" d="M582.69,222.86c-1.14,1.12-2.55,1.43-4.08,1.37,1.16-1.06,2.55-1.43,4.08-1.37Z"/>
  <path class="cls-21" d="M590.82,221.5c-1.24,1.02-2.71,.62-4.1,.68,1.2-1.22,2.72-.57,4.1-.68Z"/>
  <path class="cls-21" d="M586.14,222.2c-1.05,.79-2.29,.58-3.48,.67,.97-1.18,2.28-.62,3.48-.67Z"/>
  <path class="cls-21" d="M566.9,230.25c-.27,.93-.94,1.34-1.87,1.38,.34-.85,.97-1.3,1.87-1.38Z"/>
  <path class="cls-21" d="M555.49,212.77c-.68-.56-1.24-1.2-1.46-2.08,1.11,.26,1.53,1,1.46,2.08Z"/>
  <path class="cls-21" d="M578.63,224.22c-.58,.6-1.3,.66-2.06,.56,.54-.72,1.31-.62,2.06-.56Z"/>
  <path class="cls-21" d="M561.6,228.28c-.63-.55-.7-1.29-.69-2.06,.85,.48,.72,1.28,.69,2.06Z"/>
  <path class="cls-21" d="M559.58,222.17c-.66-.49-.66-1.29-.95-1.96,1.12,.26,.94,1.16,.95,1.96Z"/>
  <path class="cls-11" d="M855.89,822.79c-1.39,0-2.67-.05-3.58-1.06-1.31-1.48-2.74-1.38-4.23-.43-2.84,1.82-5.97,1.93-9.14,1.51-3.88-.52-6.75-2.53-8.03-6.32-1.24-3.67-.21-6.87,2.45-9.6,.39-.4,.78-.82,1.21-1.18,1.35-1.11,1.64-2.38,.64-3.85-3.52-5.15,1.06-12.95,8.49-12.52,3.12,.18,5.58,1.68,7.08,4.51,1.47,2.78,.6,6.17-2.22,8.83-3.37,3.18-3.39,3.2-.32,6.63,.86,.96,1.49,2.66,3.07,2.23,1.41-.38,1.63-2.03,2.04-3.31,.24-.75,.31-1.56,.61-2.28,.63-1.49,2.42-2.18,3.98-1.63,1.23,.44,1.69,1.64,.98,3.42-.83,2.09-1.36,4.29-2.61,6.22-1.55,2.4-1.42,2.86,.5,4.99,.15,.17,.33,.31,.47,.49,.63,.75,1.72,1.39,1.2,2.55-.52,1.17-1.76,.68-2.58,.8Zm-10.31-5.19c1.06-.81,1.41-1.75,.44-2.85-1.71-1.93-3.39-3.89-5.2-5.73-1.21-1.23-2.28-1.07-3.37,.38-1.22,1.61-1.86,3.41-.87,5.34,1.13,2.22,2.79,3.79,6.29,3.8,.46,.02,1.67-.15,2.71-.94Zm-2.51-24.58c-1.9-.07-3.55,1.8-3.61,4.1-.06,2.3,1.16,4.4,2.66,4.57,1.7,.19,4.06-2.42,4.17-4.62,.11-2.1-1.4-3.98-3.23-4.05Z"/>
  <path class="cls-14" d="M381.96,469.5c9.03,0,18.06,0,27.09,0,.79,0,1.58,0,2.37,.06,1.19,.1,1.85,.81,1.9,1.98,.05,1.24-.01,2.48-.01,3.72,0,15.58,0,31.15,0,46.73,0,1.13,.06,2.27-.06,3.38-.29,2.71-1.65,4.05-4.33,4.34-.89,.09-1.8,.05-2.71,.05-17.83,0-35.67,0-53.5,0-.68,0-1.35,.01-2.03-.01-1.23-.05-1.82-.79-1.96-1.93-.08-.67-.04-1.35-.04-2.03,0-16.59,0-33.18,.01-49.77,0-.9-.05-1.82,.07-2.7,.32-2.35,1.83-3.72,4.41-3.77,4.85-.09,9.71-.04,14.56-.05,4.74,0,9.48,0,14.22,0h0Z"/>
  <path class="cls-42" d="M379.77,451.91c-9.02,0-18.05,0-27.07,0-3.57,0-3.67-.08-3.69-3.51-.02-3.5-.04-6.99,.02-10.49,.05-2.91,1.6-4.55,4.5-4.85,.78-.08,1.58-.03,2.37-.03,17.59,0,35.19,0,52.78,0,.68,0,1.35-.02,2.03,.01,1.22,.06,1.89,.78,1.9,1.95,.02,4.51,.06,9.02-.07,13.53-.05,1.71-1.57,3.06-3.33,3.31-.88,.13-1.8,.07-2.7,.07-8.91,0-17.82,0-26.73,0Z"/>
  <g>
    <path class="cls-28" d="M642.62,806c.09,5.36-1.53,9.96-5.65,13.57-6.05,5.31-18.54,4.96-23.03-4.63-3.78-8.08-2.06-17.39,4.27-22.43,8.42-6.71,21.86-2.86,24.02,9.13,.26,1.43,.26,2.91,.38,4.37Zm-9.72-9.47c-3-3.07-7.83-3.16-10.9-.22-4.69,4.49-4.99,14.5-.56,19.22,3.96,4.22,9.76,3.6,12.87-1.34,1.57-2.49,2.07-5.2,1.97-8.03,.11-3.67-.76-6.96-3.37-9.63Z"/>
    <path class="cls-50" d="M648.34,806.07c0-4.18-.04-8.35,.01-12.53,.03-2.61,.39-2.99,2.9-3.02,3.95-.06,7.9-.02,11.85-.02,.23,0,.45,0,.68,0,1.3,.02,2.22,.57,2.26,1.96,.05,1.54-1.03,1.81-2.28,1.8-2.26-.02-4.52-.07-6.77-.04-2.98,.04-3.52,.59-3.65,3.56,0,.11,0,.23,0,.34-.15,5.76,.24,6.16,5.93,6.13,1.35,0,2.71-.03,4.06,0,1.38,.04,2.06,.84,1.99,2.18-.07,1.24-.88,1.75-2.05,1.75-2.03,0-4.06-.05-6.1-.02-3.22,.04-3.78,.58-3.83,3.71-.04,2.6,.06,5.19-.03,7.79-.06,1.9-.69,2.4-2.48,2.38-1.77-.02-2.41-.53-2.45-2.46-.08-4.51-.03-9.03-.03-13.55h-.01Z"/>
  </g>
  <g>
    <path class="cls-26" d="M521.37,755.86c-5.87,0-11.75,.03-17.62-.01-3.14-.02-3.91,.39-5.14,3.27-1.61,3.76-3.65,7.25-6.28,10.38-2.12,2.53-5.39,1.94-6.6-1.17-.45-1.15,.25-1.98,.83-2.77,1.61-2.18,3.05-4.46,4.28-6.88,5.01-9.85,6.05-19.96,2.24-30.45-.86-2.36-.36-3.03,2.18-3.15,3.56-.17,4.19,.41,5.24,3.83,1.68,5.49,2.03,11.08,1.65,16.75-.23,3.41,.09,3.76,3.4,3.79,2.48,.02,4.97,.04,7.45,0,2.84-.05,3.3-.49,3.31-3.4,.02-9.6,0-19.2,0-28.8,0-.68-.03-1.36,0-2.03,.14-2.43,.76-3.05,3.03-3.1,2.29-.04,3.02,.6,3.11,2.97,.08,2.14,.01,4.29,.01,6.44,0,8.02-.01,16.04,0,24.06,0,3.55,.31,3.84,3.87,3.87,2.37,.02,4.74,.03,7.12,0,2.96-.04,3.51-.58,3.51-3.64,.02-9.49,0-18.97,0-28.46,0-.56-.03-1.13,0-1.69,.1-2.48,.96-3.36,3.22-3.33,2.24,.03,3.13,.92,3.14,3.4,.02,9.6,0,19.2,0,28.8,0,2.6,.05,5.2,0,7.79-.05,2.9-.72,3.56-3.65,3.57-6.1,.03-12.2,0-18.3,0v-.04Z"/>
    <path class="cls-4" d="M426.71,733.87c0-6.1-.03-12.19,.01-18.29,.02-2.58,1.02-3.43,3.56-3.26,2.11,.15,2.66,.89,2.66,3.8,0,9.48,0,18.96-.02,28.45,0,.68-.04,1.36,0,2.03,.14,2.17,.66,2.68,2.91,2.83,.34,.02,.68,0,1.02,0,8.92,0,17.84,.02,26.75-.02,4.75-.02,7.76-2.14,9-6.2,1.24-4.05-.18-8.3-3.57-10.84-1.42-1.07-2.99-1.48-4.75-1.46-4.06,.05-8.13,.06-12.19,.03-3.05-.02-3.31-.48-3.55-3.57-.21-2.56,.69-4.62,2.11-6.59,3.1-4.29,6.21-8.58,9.32-12.87,1.85-2.55,4.55-2.42,6.13,.31,.66,1.15,.27,2.11-.49,3.1-2.33,3.04-4.61,6.11-6.9,9.18-.41,.54-.78,1.11-1.21,1.63-.45,.55-.84,1.16-.55,1.84,.37,.88,1.25,.81,2.05,.81,2.37,0,4.74-.03,7.11,.03,3.44,.08,6.31,1.55,8.81,3.8,7.8,7.02,5.76,18.77-2.13,24.31-2.68,1.89-5.65,2.74-8.9,2.74-11.18,0-22.35,.03-33.53,0-3.16,0-3.61-.52-3.62-3.85-.02-5.98,0-11.97,0-17.95h-.01Z"/>
    <path class="cls-26" d="M386.02,740.17c.05-8.66,7.09-15.62,15.58-15.83,7.89-.19,15.66,7.11,15.47,15.86-.19,8.75-6.99,15.59-15.76,15.54-8.56-.05-15.35-6.96-15.3-15.56Z"/>
    <path class="cls-40" d="M493.17,713.47c1.8,0,3.55,1.9,3.5,3.79-.05,1.97-1.81,3.7-3.67,3.61-1.68-.08-3.28-1.81-3.34-3.61-.06-1.87,1.71-3.78,3.51-3.79Z"/>
    <path class="cls-5" d="M392.6,739.95c.07-4.89,4.32-9.09,9.09-8.99,4.69,.1,9,4.54,8.98,9.24-.02,4.79-4.27,8.89-9.2,8.88-4.91-.01-8.94-4.16-8.87-9.13Z"/>
    <path class="cls-47" d="M406.31,720.22c-1.34-.03-3-1.76-2.98-3.11,.02-1.4,1.76-3,3.13-2.87,1.39,.13,2.73,1.53,2.74,2.88,.01,1.55-1.46,3.13-2.89,3.09Z"/>
    <path class="cls-39" d="M400.2,717.04c.07,1.48-1.15,2.97-2.5,3.05-1.37,.08-2.78-1.21-2.91-2.68-.14-1.47,1.02-2.86,2.52-3.01,1.37-.13,2.83,1.19,2.9,2.63Z"/>
  </g>
  <path class="cls-8" d="M712.4,571.51c3.16,0,6.31-.04,9.47,.01,2.4,.04,3.02,.6,3.05,3.01,.07,4.85,.08,9.7,0,14.54-.04,2.4-.87,3.11-3.38,3.13-6.2,.03-12.4,.03-18.6,0-2.67-.01-3.26-.52-3.29-3.12-.07-4.96-.06-9.92,.02-14.88,.04-2.26,.58-2.68,2.91-2.7,3.27-.04,6.54,0,9.81,0h0Z"/>
  <path class="cls-7" d="M380.93,509.71c-2.93,0-5.86,.03-8.8-.01-2.99-.04-3.41-.42-3.43-3.26-.04-4.62-.04-9.25,0-13.87,.03-2.7,.48-3.15,3.18-3.17,6.09-.04,12.18-.05,18.27-.01,2.58,.02,3.1,.57,3.13,3.25,.05,4.62,.06,9.25,0,13.87-.03,2.62-.58,3.13-3.24,3.18-3.04,.06-6.09,.01-9.13,.01Z"/>
  <g>
    <path class="cls-25" d="M741.09,805.95c0-4.4-.07-8.8,.03-13.2,.06-2.68,2.15-3.98,4.35-2.84,1.22,.63,1.71,1.68,1.68,3.06-.06,2.48-.06,4.96-.06,7.44,0,.65-.12,1.43,.65,1.77,.92,.4,1.5-.25,1.96-.88,2.13-2.91,4.26-5.82,6.32-8.77,1.4-2.01,3.22-3.07,5.71-2.91,.77,.05,1.64-.2,2.12,.66,.51,.93,.12,1.73-.49,2.47-2.1,2.51-4.19,5.01-6.29,7.52-.36,.43-.71,.87-1.09,1.29-1.34,1.47-1.32,2.92-.2,4.58,2.51,3.74,4.91,7.55,7.35,11.34,.12,.19,.31,.35,.39,.55,.57,1.34,2.37,2.49,.96,4.16-.81,.95-4.61,.43-5.69-.65-.54-.55-.96-1.25-1.37-1.92-1.95-3.17-3.88-6.34-5.81-9.52-.48-.79-.95-1.58-2.05-1.47-1.06,.1-1.45,.93-1.87,1.75-.71,1.37-.55,2.85-.56,4.31,0,1.58,.05,3.16-.02,4.74-.1,2.31-.94,3.15-3.01,3.19-2.1,.04-2.95-.76-2.98-3.12-.06-4.51-.02-9.02-.02-13.54h0Z"/>
    <path class="cls-46" d="M792.61,822.67c-1.77,.26-3.01-.6-3.6-2.51-.43-1.4-.91-2.78-1.38-4.16-.76-2.24-1.36-2.74-3.6-2.81-1.57-.05-3.15,.04-4.73-.01-1.86-.06-2.94,.79-3.43,2.56-.42,1.52-.88,3.03-1.45,4.5-.84,2.16-1.52,2.53-3.85,2.43-2.14-.1-2.84-.93-2.28-3.03,.52-1.95,1.24-3.85,1.86-5.78,2.07-6.42,4.15-12.85,6.22-19.27,.1-.32,.22-.64,.34-.96,1.31-3.57,4.1-4.9,7.69-3.66,1.19,.41,1.72,1.41,2.09,2.49,.96,2.76,1.89,5.54,2.81,8.32,2.01,6.09,4.01,12.18,6,18.28,.88,2.69,.24,3.6-2.68,3.62Z"/>
    <path class="cls-6" d="M732.89,822.61c-1.72,.26-3-.52-3.6-2.45-.46-1.51-1.04-2.97-1.49-4.48-.52-1.76-1.6-2.62-3.46-2.57-1.69,.05-3.38,.02-5.07,0-1.72-.01-2.7,.86-3.16,2.47-.43,1.51-.83,3.05-1.41,4.51-.93,2.32-1.71,2.73-4.13,2.52-1.8-.16-2.41-.89-1.98-2.66,.35-1.42,.92-2.77,1.37-4.16,2.5-7.7,4.95-15.42,7.51-23.11,.89-2.66,5.62-3.95,7.88-2.25,1.15,.86,1.51,2.23,1.93,3.5,1.46,4.37,2.86,8.77,4.3,13.15,1.26,3.85,2.53,7.69,3.79,11.54,.07,.21,.16,.42,.22,.64,.7,2.53,.11,3.33-2.72,3.36Z"/>
    <path class="cls-9" d="M692.49,822.59c-2.93,0-5.87,.03-8.8,0-3.41-.05-4.36-1.59-2.51-4.45,3.12-4.82,6.43-9.52,9.68-14.25,1.47-2.13,3.03-4.19,4.49-6.33,1.15-1.68,.59-2.72-1.52-2.75-3.04-.05-6.09,.08-9.14,.05-2.11-.03-2.86-.75-2.84-2.46,.03-1.71,.83-2.55,2.8-2.57,5.64-.06,11.28-.07,16.92-.02,2.98,.02,4.07,1.78,2.58,4.46-1.36,2.45-3.03,4.74-4.64,7.06-3.02,4.34-6.08,8.65-9.14,12.97-.47,.67-.88,1.36-.55,2.18,.44,1.09,1.46,.88,2.33,.88,3.27,0,6.54-.01,9.81-.06,1.34-.02,2.49,.24,2.99,1.67,.69,1.98-.4,3.55-2.67,3.61-3.27,.09-6.54,.02-9.81,.03Z"/>
    <path class="cls-36" d="M809.14,808.64c0,3.61,.05,7.23-.02,10.84-.04,2.37-.83,3.11-2.99,3.14-2.03,.03-2.91-.69-2.98-2.77-.1-2.59-.02-5.19-.02-7.79,0-4.63,.03-9.26,0-13.89-.02-2.89-.51-3.35-3.34-3.39-1.24-.02-2.48,.07-3.72,.03-1.51-.04-2.26-.88-2.24-2.38,.02-1.41,.59-2.45,2.11-2.56,1.46-.1,2.93-.03,4.4-.04,4.86,0,9.71-.02,14.57-.02,1,0,2.04-.15,2.83,.74,.75,.85,.87,1.84,.56,2.85-.3,.98-1.1,1.41-2.08,1.42-1.35,.01-2.71-.08-4.06-.05-2.42,.06-2.96,.57-3,3.02-.06,3.61-.01,7.23-.01,10.84h.01Z"/>
    <path class="cls-5" d="M781.39,808.72c-.45,0-.9,.04-1.35,0-1.8-.19-2.46-.96-1.9-2.68,.77-2.35,1.61-4.66,2.01-7.11,.09-.52,.28-1.15,.94-1.26,.82-.14,1.28,.49,1.49,1.1,.91,2.64,1.81,5.3,2.56,7.99,.27,.97-.32,1.77-1.4,1.9-.77,.09-1.57,.02-2.35,.02v.05Z"/>
    <path class="cls-5" d="M722.34,807.73c-2.84-.04-2.9-.13-2.26-2.74,.35-1.42,.65-2.86,1.03-4.27,.08-.28,.38-.62,.65-.7,.5-.15,.84,.23,.98,.67,.63,1.92,1.25,3.85,1.83,5.79,.2,.67-.16,1.08-.82,1.17-.56,.07-1.12,.07-1.41,.09Z"/>
  </g>
  <g>
    <path class="cls-26" d="M734.07,733.86c0-5.97-.01-11.95,0-17.92,0-2.55,.44-3.21,2.19-3.55,2.8-.53,4.05,.41,4.05,3.33,.03,12.17,.02,24.35-.01,36.52,0,2.76-.67,3.44-2.98,3.45-2.42,.01-3.21-.71-3.23-3.24-.03-4.4,.03-8.79,.04-13.19,0-1.8,0-3.61,0-5.41h-.07Z"/>
    <path class="cls-50" d="M689.41,755c-10.39,0-20.77,0-31.16,0-3.53,0-3.76-.22-3.77-3.53-.01-11.74-.02-23.48,0-35.23,0-2.73,.37-3.23,2.23-3.33,2.08-.11,2.83,.6,2.82,2.75-.02,9.48-.05,18.97-.08,28.45,0,.56-.01,1.13,0,1.69,.07,3.74,.6,4.26,4.37,4.28,3.61,.01,7.23,.02,10.84,0,3.65,0,4.32-.97,2.85-4.23-2.01-4.46-1.73-8.75,.75-12.94,3.46-5.83,12.02-8.88,18.35-6.49,1.26,.48,2.57,.92,3.7,1.63,1.57,.98,1.74,2.08,.82,3.39-1.11,1.59-2.16,1.92-3.67,.85-1.23-.87-2.49-1.53-3.97-1.75-5.17-.79-9.59,2.13-11.03,7.26-1.23,4.37,1.71,9.68,6.34,11.38,1.71,.63,3.48,.91,5.31,.91,6.89-.02,13.77,.02,20.66,0,3.23,0,3.92-.67,3.93-4.05,.04-9.6,.01-19.19,0-28.79,0-.79-.05-1.58,0-2.37,.12-1.57,1.14-2.03,2.57-2.04,1.45,0,2.42,.48,2.53,2.06,.04,.56,.01,1.13,.01,1.69,0,11.63,0,23.26,0,34.89,0,3.53-.12,3.57-3.58,3.56-10.27-.03-20.55-.01-30.82-.01h0Z"/>
    <path class="cls-10" d="M600.6,754.71c-9.48,0-18.97,0-28.45,0-3.65,0-3.71-.2-3.81-3.83-.18-6.74,1.92-12.67,6.25-17.76,5.06-5.95,11.6-8.35,19.33-7.32,3.16,.42,3.72,1.22,3.72,4.48,0,5.19-.03,10.39,0,15.58,.02,3.81,1.04,4.81,4.83,4.84,3.61,.03,7.23,.04,10.84,0,3.15-.03,4.15-1.47,2.71-4.28-1.08-2.1-1.47-4.19-1.46-6.5,.04-9.33,11.59-17.27,19.8-12.91,5.14,2.73,8.67,7.43,8.66,13.35-.01,6.33-3.34,10.62-8.68,13.44-1.77,.94-3.92,.92-5.97,.92-9.26-.03-18.52-.01-27.78-.01Z"/>
    <path class="cls-29" d="M583.12,717.01c.08,1.26-1.34,2.98-2.58,3.14-1.32,.17-3.13-1.5-3.17-2.92-.03-1.27,1.48-2.87,2.78-2.95,1.28-.07,2.89,1.39,2.97,2.72Z"/>
    <path class="cls-20" d="M591.97,717.21c-.04,1.51-1.67,3.03-3.1,2.9-1.33-.13-2.55-1.63-2.51-3.1,.04-1.46,1.44-2.77,2.87-2.68,1.39,.09,2.77,1.55,2.74,2.88Z"/>
    <path class="cls-5" d="M582.94,749.6c-2.14,0-4.28,.06-6.42-.02-2.17-.08-2.89-.85-2.64-2.96,.94-7.88,6.9-14.7,15.34-15.56,2.84-.29,3.52,.31,3.56,3.04,.06,4.05,.06,8.11,0,12.16-.03,2.76-.61,3.29-3.43,3.34-2.14,.04-4.28,0-6.42,0Z"/>
    <path class="cls-5" d="M628.88,749.32c-4.94,.02-8.98-4.02-8.99-9,0-4.99,4.03-9.27,8.76-9.3,4.87-.03,9.41,4.34,9.48,9.13,.08,4.92-4.2,9.15-9.26,9.17Z"/>
  </g>
  <g>
    <path class="cls-24" d="M204.76,806.19c0-4.06-.03-8.12,.01-12.18,.02-1.63-.41-3.54,1.86-4.17,2.58-.72,5,.02,6.26,2.03,2.03,3.25,3.97,6.55,5.95,9.83,1.45,2.41,2.91,4.82,4.01,7.43,.32,.75,.72,1.6,1.64,1.44,1.05-.18,.8-1.21,.79-1.96-.06-4.74-.15-9.47-.21-14.21-.01-.79-.04-1.59,.06-2.36,.2-1.61,1.21-2.28,2.79-2.32,1.61-.03,2.6,.63,2.81,2.25,.09,.67,.07,1.35,.07,2.03,0,8.12,.02,16.24,0,24.36,0,1.63,.44,3.53-1.89,4.13-2.37,.61-4.35-.03-5.62-2.03-1.45-2.28-2.82-4.62-4.13-6.98-2.13-3.84-4.61-7.49-6.35-11.55-.13-.31-.29-.61-.46-.9-.25-.4-.62-.7-1.09-.63-.49,.07-.76,.46-.78,.95-.03,.9-.05,1.8-.04,2.7,.03,5.08,.05,10.15,.1,15.23,.01,1.45-.22,2.72-1.85,3.2-2.26,.67-3.82-.35-3.87-2.76-.09-4.51-.03-9.02-.03-13.53h-.02Z"/>
    <path class="cls-50" d="M179.89,806.04c0-4.17-.03-8.35,0-12.52,.03-3.13,.64-3.69,3.82-3.7,4.06-.01,8.12,0,12.18,0,1.04,0,2.02,.05,2.63,1.12,1.03,1.84,.08,3.67-2.12,3.78-2.25,.11-4.51-.01-6.77,0-3.32,.01-3.71,.4-3.77,3.63-.01,.68-.08,1.36-.03,2.03,.13,1.91,.75,2.61,2.72,2.7,2.36,.1,4.74-.08,7.1,.04,2.23,.11,3.29,1.99,2.25,3.74-.57,.97-1.5,1.29-2.6,1.27-2.03-.03-4.06-.08-6.09-.03-2.59,.06-3.24,.65-3.27,3.18-.07,5.77-.46,6.53,5.98,6.27,1.69-.07,3.39-.12,5.07-.05,1.74,.07,2.53,.9,2.6,2.46,.07,1.6-.67,2.54-2.42,2.57-4.96,.09-9.93,.1-14.89,.01-1.81-.03-2.36-.78-2.39-2.95-.06-4.51-.02-9.02-.02-13.54h-.01Z"/>
    <path class="cls-2" d="M321.15,806.08c0-4.4-.04-8.8,.02-13.2,.03-2.22,.97-3.22,2.91-3.39,1.85-.16,3.04,.72,3.31,2.57,.11,.77,.05,1.58,.05,2.37,0,5.98,0,11.96,0,17.93,0,4.76,.07,4.84,5.01,4.83,1.8,0,3.61-.06,5.41-.01,2.25,.06,2.98,.73,3.06,2.68,.08,1.98-.65,2.79-2.85,2.82-4.62,.07-9.25,.08-13.87,.02-2.38-.03-2.97-.66-3.01-3.08-.06-4.51-.02-9.02-.02-13.53Z"/>
    <path class="cls-4" d="M172.71,812.97c0,1.69-.03,3.39,.01,5.08,.04,1.43-.55,2.53-1.89,2.86-6.89,1.66-13.6,2.01-19.56-2.9-1.36-1.12-2.47-2.43-3.05-3.98-2.38-6.36-2.91-16.79,6.29-21.59,4.88-2.55,10.13-2.8,15.44-1.34,.79,.22,1.48,.7,1.25,1.71-.2,.89-.88,1.35-1.73,1.32-1.35-.04-2.69-.26-4.04-.35-4.48-.3-8.42,.62-11.51,4.29-1.47,1.75-2.25,3.73-2.58,5.79-1.18,7.42,3.55,15.55,13.45,14.87,3.05-.21,3.87-1.28,3.96-4.35,.02-.79,.02-1.58,0-2.37-.08-3.11-.18-3.24-3.44-3.72-1.09-.16-2.15-.34-2.09-1.67,.06-1.29,1.14-1.45,2.23-1.54,6.96-.59,7.26-.34,7.25,6.53,0,.45,0,.9,0,1.35h.01Z"/>
    <path class="cls-4" d="M262.61,806.18c0-4.17-.02-8.35,0-12.52,.02-2.97,.48-3.47,3.48-3.83,4.17-.5,8.31-.62,12.4,.68,6.24,1.99,8.12,9.36,3.57,14.09-2.34,2.43-2.15,2.32-.42,5.19,1.93,3.21,2.55,6.94,3.29,10.58,.2,.98-.24,1.75-1.27,2.1-1.42,.48-3.59-.02-4.3-1.17-.46-.75-.69-1.65-.94-2.51-.57-1.95-1.06-3.92-1.65-5.86-.56-1.84-1.77-3.26-3.63-3.69-2.82-.65-4.75-.45-4.53,3.25,.14,2.25,.07,4.51,.01,6.77-.06,2.64-.76,3.33-3.12,3.31-2.22-.03-2.83-.62-2.86-3.19-.06-4.4-.02-8.8-.02-13.19h-.02Zm6.87-5.73c.03,3.57,.79,4.14,4.25,3.15,.43-.12,.87-.26,1.25-.48,2.06-1.21,2.97-2.96,2.49-4.7-.54-1.97-1.91-2.94-4.28-3.05-3.63-.16-3.7-.08-3.71,4.07,0,.34,0,.68,0,1.01Z"/>
    <path class="cls-49" d="M302.44,789.76c3.57,0,3.79,.07,4.9,3.37,2.54,7.58,4.98,15.2,7.47,22.8,.42,1.28,.98,2.52,1.36,3.81,.57,1.96,.02,2.74-1.97,2.96-2.96,.33-4.15-.37-5.13-3.17-.45-1.27-.73-2.61-1.18-3.88-.59-1.66-1.73-2.55-3.6-2.43-1.46,.09-2.93,.09-4.4,.01-1.92-.11-2.9,.81-3.37,2.59-.41,1.52-.93,3.02-1.49,4.49-.82,2.16-3.11,3.15-5.19,2.27-1.54-.65-1.34-1.96-.98-3.17,.77-2.59,1.65-5.15,2.48-7.72,1.86-5.79,3.74-11.57,5.56-17.38,1.23-3.91,1.96-4.57,5.54-4.56Zm-.26,18.69c.68-.03,1.36,0,2.02-.11,.92-.14,1.49-.75,1.24-1.65-.73-2.6-1.56-5.17-2.4-7.74-.13-.4-.51-.75-1.06-.66-.5,.08-.86,.43-.92,.86-.36,2.48-1.31,4.77-2.07,7.12-.38,1.18,.25,1.96,1.5,2.11,.56,.06,1.12,.01,1.69,.01,0,.02,0,.04,0,.06Z"/>
    <path class="cls-44" d="M239.01,806.89c-.28-4.42,.28-8.92-.34-13.42-.23-1.64,.61-2.58,2.33-2.62,4.28-.11,8.57-.05,12.85-.04,1.14,0,2.04,.42,1.96,1.75-.07,1.16-.96,1.42-1.93,1.42-2.48,0-4.96-.05-7.44,0-3.22,.07-3.88,.78-3.96,4.06-.14,5.74,.25,6.13,6.02,6.14,1.58,0,3.16-.02,4.73,.01,.73,.02,1.33,.35,1.39,1.17,.07,.94-.41,1.55-1.35,1.57-2.14,.05-4.28,0-6.43,.03-3.64,.05-4.31,.72-4.36,4.37-.02,1.35-.07,2.71,.03,4.06,.16,2.11,1.06,3.02,3.2,3.12,2.25,.1,4.51,.03,6.76,.03,.68,0,1.35,0,2.03,.01,1.11,.03,1.63,.63,1.6,1.72-.03,.96-.55,1.47-1.48,1.47-4.62,.01-9.25,.06-13.87-.02-1.79-.03-2.2-1.51-2.03-2.92,.48-3.94,.04-7.88,.28-11.9Z"/>
  </g>
  <g>
    <path class="cls-44" d="M345.03,724.73c10-.36,15.86,5.75,16.86,15.55,.69,6.73-1.15,12.99-4.08,18.95-1.75,3.55-3.98,6.81-6.49,9.88-1.98,2.41-2.77,2.62-4.65,1.13-2.48-1.98-2.55-2.72-.45-5.15,1.7-1.97,3.31-4.01,4.62-6.25,1.3-2.23,.84-3.09-1.7-3.12-2.49-.03-4.97-.11-7.4-.71-5.79-1.43-10.04-4.67-11.49-10.66-1.51-6.25-.34-11.94,4.75-16.3,2.95-2.53,6.49-3.55,10.03-3.31Z"/>
    <path class="cls-6" d="M182.78,764.91c-2.93,3-6.06,5.61-10.32,6.65-7.27,1.77-13.42-.31-18.42-5.51-5.21-5.43-6.25-11.97-3.89-19.09,1.21-3.64,3.76-6.34,6.3-9.04,2.47-.19,3.04,.19,4.01,2.03,.84,1.61-.04,2.52-1.06,3.5-2.86,2.73-5.02,5.77-4.91,10,.13,5.41,3,9.09,7.36,11.77,4.8,2.94,9.53,2.22,13.96-.88,3.85-2.69,5.88-6.37,5.85-11.2-.07-11.86-.01-23.72,0-35.57,0-.68-.03-1.36,0-2.03,.09-2.21,.6-2.79,2.44-2.85,1.97-.07,2.63,.58,2.63,2.96,.03,9.37,0,18.75,0,28.12q0,6.4,6.26,6.38c12.2,0,24.39,0,36.59,0,.9,0,1.81,.04,2.71-.05,1.46-.14,2.34-1.04,2.19-2.49-1.03-9.97-9.14-20.34-20.21-18.98-1.83,.23-3.49,.86-5.13,1.63-.81,.38-1.67,.85-2.59,.59-1.17-.33-1.92-1.25-2.24-2.36-.36-1.27,.74-1.81,1.62-2.25,7.92-3.99,16.55-3.71,23.7,2.31,7.31,6.15,9.86,14.31,10.12,23.46,.07,2.44-.36,2.85-3.03,2.87-6.1,.04-12.2,.02-18.3,.01-9.03,0-18.07,.09-27.1-.07-2.93-.05-4.6,.86-5.5,3.75-.69,2.21-2,4.22-3.04,6.33Z"/>
    <path class="cls-38" d="M220.23,715.26c-.06,1.53-1.58,3.02-3.03,2.98-1.36-.04-2.98-1.73-2.97-3.11,0-1.4,1.7-3.01,3.08-2.95,1.53,.07,2.98,1.6,2.92,3.07Z"/>
    <path class="cls-5" d="M354.5,742.71c.03,6.35-.33,6.74-5.98,6.61-3.39-.08-6.74-.3-9.34-3.03-2.48-2.6-2.78-5.64-1.75-8.79,1.08-3.32,3.47-5.52,7-6.11,3.49-.58,6.08,1,8.07,3.78,1.82,2.53,2.1,5.4,2,7.54Z"/>
    <path class="cls-10" d="M276.76,754.68c-7,0-13.99,0-20.99,0-.68,0-1.35-.01-2.03,0-1.46,.04-2.44-.46-2.37-2.11,.07-1.47,1.02-1.86,2.3-1.86,3.05,0,6.09,0,9.14,.01,3.5,0,7-.13,10.49,.05,3.35,.17,4.85-1.03,4.39-4.97-1.15-9.72-9.16-17.77-21.06-15.91-1.33,.21-2.77,.97-3.19-1.11-.31-1.52,.69-2.95,2.45-2.99,4.34-.09,8.69-.9,12.96,1.11,5.83,2.73,9.39,7.23,11.22,13.18,.72,2.35,1.52,4.7,1.86,7.18,.35,2.54,1.58,3.4,4.18,3.45,2.82,.05,5.64,.05,8.46,0,3.38-.05,4.18-.82,4.19-4.24,.03-9.59,0-19.18,0-28.78,0-.79-.01-1.58,.02-2.37,.05-1.24,.75-1.82,1.96-1.82,1.17,0,1.96,.49,2.05,1.75,.05,.67,.02,1.35,.02,2.03,0,11.17,0,22.34,0,33.52,0,3.73-.1,3.86-3.74,3.86-7.45,.02-14.9,0-22.34,0Z"/>
    <path class="cls-10" d="M318.43,734.35c0,5.52,0,11.05,0,16.57,0,.56,.02,1.13,0,1.69-.04,1.17-.56,1.98-1.83,1.94-1.11-.04-1.53-.82-1.58-1.83-.03-.56-.01-1.13-.01-1.69,0-11.27,0-22.54,0-33.81,0-.79-.02-1.58,.1-2.36,.11-.72,.61-1.19,1.38-1.26,.89-.08,1.61,.27,1.8,1.16,.17,.76,.13,1.56,.14,2.35,0,5.75,0,11.5,0,17.24Z"/>
  </g>
  <g>
    <path class="cls-34" d="M442.41,805.93c0-4.4-.06-8.79,.02-13.19,.05-2.49,1.01-3.26,3.36-3.06,1.89,.16,2.59,.77,2.67,2.76,.1,2.48-.02,4.96,.03,7.44,.05,2.51,.47,2.92,2.98,2.97,2.48,.05,4.96,.04,7.44,0,2.87-.04,3.2-.4,3.23-3.42,.02-2.03-.04-4.06,0-6.09,.05-2.78,.73-3.64,2.8-3.7,2.43-.07,3.3,.79,3.32,3.53,.04,8.68,.04,17.36,0,26.03-.01,2.89-.93,3.66-3.64,3.44-1.64-.13-2.47-.92-2.47-2.57,0-2.82,.02-5.64-.02-8.45-.04-2.9-.46-3.32-3.33-3.37-2.37-.04-4.73-.05-7.1,0-2.71,.05-3.15,.48-3.21,3.14-.05,2.7,.03,5.41-.03,8.11-.06,2.53-.62,3.07-2.91,3.12-2.47,.05-3.14-.55-3.17-3.19-.05-4.51-.01-9.02-.01-13.52h.04Z"/>
    <path class="cls-22" d="M384.53,801.86c0-3.05-.07-6.1,.02-9.14,.07-2.34,.88-3.01,3.14-2.95,2.16,.05,2.83,.72,2.87,3.24,.06,4.4,0,8.8,.02,13.2,0,1.69,.1,3.38,.16,5.07,.06,1.65,.75,3.07,1.71,4.34,2.59,3.43,7.8,3.17,10.05-.5,1.09-1.77,1.58-3.72,1.58-5.8,0-4.85,.04-9.7,.06-14.56,0-.9-.05-1.81,.05-2.71,.19-1.6,1.16-2.32,2.78-2.31,1.95,.01,2.87,.6,3.12,2.33,.13,.89,.06,1.8,.07,2.7,.07,5.3,.31,10.62-.13,15.9-.39,4.73-2.08,8.95-6.78,10.91-7.97,3.31-17.69,.82-18.56-10.26-.25-3.14-.04-6.31-.04-9.47-.04,0-.09,0-.13,0Z"/>
    <path class="cls-15" d="M583.1,814.37c.78-3.71-.89-7.58-3.14-11.35-1.73-2.9-3.27-5.91-4.9-8.86-.71-1.27-1.79-2.55-.37-3.94,.97-.95,4.36-.5,5.27,.75,.85,1.17,1.49,2.51,2.11,3.84,.95,2.04,1.79,4.13,2.67,6.2,.37,.85,.85,1.72,1.85,1.77,1.18,.06,1.25-1.05,1.6-1.86,1.27-2.88,2.54-5.77,3.91-8.61,1.07-2.23,3.35-3.12,5.64-2.39,.89,.28,1.34,.87,1.11,1.78-.16,.64-.46,1.27-.79,1.85-2.31,4-4.59,8.01-6.99,11.95-1.22,1.99-1.87,4.04-1.79,6.39,.08,2.59,.08,5.19,0,7.78-.07,2.22-1.01,3.05-3.14,3.04-2.12-.01-2.92-.8-3.02-3.13-.06-1.46-.01-2.93-.01-5.21Z"/>
    <path class="cls-36" d="M561.86,808.64c0,3.61,.05,7.23-.02,10.84-.04,2.43-.73,3.08-2.96,3.13-2.22,.04-2.93-.59-2.95-3.08-.06-6.89,0-13.78-.01-20.67,0-3.8-.31-4.1-4.01-4.07-1.02,0-2.03,.05-3.05,.04-1.49-.02-2.29-.79-2.34-2.29-.05-1.61,.69-2.58,2.38-2.65,2.71-.11,5.42-.03,8.13-.03,3.39,0,6.78-.02,10.16-.01,.78,0,1.63-.05,2.33,.22,1.33,.51,1.78,1.66,1.57,3.03-.18,1.21-1.04,1.71-2.16,1.73-1.47,.03-2.94-.09-4.4-.03-2.02,.08-2.6,.62-2.64,2.67-.08,3.73-.02,7.45-.02,11.18Z"/>
    <path class="cls-17" d="M542.88,806.27c0,4.39,.05,8.78-.02,13.16-.04,2.75-1.12,3.59-3.81,3.29-1.55-.17-2.53-.85-2.59-2.52-.01-.34-.03-.67-.03-1.01,0-8.66,.01-17.32-.01-25.99,0-1.71,.28-3.16,2.2-3.68,2.53-.68,4.16,.49,4.21,3.24,.09,4.5,.02,9,.02,13.5h.02Z"/>
    <path class="cls-16" d="M504.07,805.41c.04,4.93-1.07,8.9-3.84,12.24-4.1,4.96-9.6,6.24-15.58,4.88-5.63-1.28-9.13-5.17-10.54-10.75-1.4-5.57-1.06-11.03,2.26-15.9,3.48-5.13,8.57-7.26,14.63-6.49,5.68,.72,9.64,3.97,11.77,9.38,.92,2.35,1.5,4.72,1.3,6.64Zm-23.43,6.57c1.37,3.46,3.74,5.91,7.62,6.33,2.98,.33,6.43-1.86,7.85-4.88,2.23-4.76,2.3-9.6,.03-14.36-2.87-6.02-10.48-6.58-14.28-1.12-1.77,2.54-2.02,5.43-2.08,7.6-.02,2.71,.15,4.64,.86,6.43Z"/>
    <path class="cls-41" d="M508.97,806.22c0-4.07-.02-8.13,0-12.2,.02-3.2,.64-3.91,3.9-4.29,4.06-.47,8.1-.56,12.08,.7,6.41,2.02,8.29,9.54,3.54,14.31-2.15,2.16-2.12,2.14-.31,4.87,1.01,1.52,1.59,3.23,2.01,5,.34,1.43,.71,2.84,1.12,4.25,.39,1.31,1.04,2.67-.65,3.52-1.56,.79-3.97,.17-4.85-1.2-.86-1.35-1.23-2.9-1.5-4.47-.24-1.45-.52-2.89-1.21-4.21-.76-1.44-1.78-2.62-3.35-3.19-2.93-1.06-4.57,.06-4.63,3.17-.04,2.14,.03,4.29,0,6.44-.05,2.9-.83,3.8-3.11,3.73-2.23-.07-2.99-1.01-3.02-3.9-.04-4.18,0-8.36,0-12.54h-.01Zm6.01-8.29c.17,1.32-.02,2.69,.05,4.03,.1,1.98,.68,2.58,2.66,2.68,2.07,.11,4.02-.25,5.61-1.76,2.69-2.56,1.74-6.99-1.77-8.15-.84-.28-1.75-.36-1.88-.38-3.38-.26-5.01,.87-4.66,3.58Z"/>
    <path class="cls-37" d="M366.74,813.17c-.68,0-1.36,.04-2.03,0-1.9-.14-2.97,.9-3.53,2.54-.47,1.39-.73,2.84-1.19,4.23-.49,1.46-1.33,2.57-3.06,2.76-3.02,.33-3.95-.72-3.02-3.64,2.79-8.7,5.59-17.4,8.41-26.09,.91-2.81,1.34-3.09,4.39-3.15,3.54-.07,4.45,.34,5.31,2.95,2.24,6.74,4.38,13.52,6.58,20.28,.63,1.93,1.33,3.84,1.92,5.78,.71,2.35,.44,3.29-.89,3.74-1.91,.64-4.33-.06-5.04-1.59-.61-1.33-1.04-2.74-1.52-4.13q-1.28-3.66-4.97-3.66c-.45,0-.9,0-1.35,0v-.03Zm0-4.29c.22,0,.45,0,.67,0,3.26-.05,3.87-.81,2.85-3.83-.68-2.02-1.49-3.99-1.78-6.12-.1-.77-.26-1.67-1.21-1.79-.95-.12-1.36,.72-1.6,1.45-.86,2.66-1.68,5.34-2.42,8.04-.31,1.15,.24,1.99,1.47,2.17,.66,.09,1.34,.02,2.01,.02,0,.02,0,.05,0,.07Z"/>
    <path class="cls-18" d="M428.06,808.04c0,3.72,0,7.44,0,11.16,0,1.17-.06,2.44-1.61,2.47-1.5,.02-2.2-1.05-2.23-2.45-.06-2.93-.03-5.86-.03-8.79,0-4.4,.04-8.79-.02-13.19-.04-2.64-.58-3.14-3.18-3.27-1.12-.06-2.25,.02-3.38,0-.97-.02-2.22,.26-2.31-1.24-.09-1.52,1.14-1.42,2.14-1.43,2.25-.03,4.51,0,6.76,0,3.72,0,7.44-.02,11.16,0,.87,0,2.01-.15,2.07,1.13,.06,1.39-1.03,1.55-2.11,1.56-1.47,0-2.94-.07-4.4,.02-2.25,.14-2.79,.63-2.84,2.89-.08,3.72-.02,7.44-.02,11.16h-.01Z"/>
  </g>
  <g>
    <path class="cls-30" d="M814.44,720.78c-2.26,0-4.51,0-6.77,0-.81,0-1.58-.09-2.22-.65-1.12-.99-.79-2.76,.68-3.25,.73-.24,1.57-.13,2.34-.26,.89-.16,1.4-.7,1.3-1.66-.05-.45-.17-.89-.28-1.32-.87-3.44,.09-6.3,2.94-8.36,3.02-2.19,6.25-2.34,9.54-.47,1.12,.63,1.78,1.46,1.27,2.74-.52,1.32-1.56,1.91-2.98,1.58-.54-.13-1.02-.47-1.55-.66-2.02-.73-3.8-.23-4.75,1.31-1.03,1.68-.53,4.16,1.15,5.45,1.19,.92,2.54,1.44,4.08,1.4,.9-.02,1.81-.02,2.71,.05,1.14,.08,1.96,.63,2,1.86,.04,1.34-.68,2.16-2.02,2.2-2.48,.06-4.97,.02-7.45,.02v.03Z"/>
    <path class="cls-35" d="M777.37,720.85c-1.8,.09-3.63-1.73-3.67-3.63-.03-1.65,1.63-3.55,3.24-3.71,1.74-.18,3.63,1.71,3.63,3.62,0,1.76-1.63,3.64-3.21,3.72Z"/>
    <path class="cls-13" d="M835.5,767.53c-1.94,.07-3.57-1.37-3.64-3.22-.09-2.09,1.46-3.72,3.53-3.71,1.79,.01,3.3,1.67,3.29,3.6,0,1.72-1.49,3.27-3.18,3.33Z"/>
    <path class="cls-23" d="M847.65,764.14c-.03,1.83-1.56,3.35-3.45,3.41-1.85,.06-3.42-1.5-3.41-3.38,0-1.94,1.46-3.55,3.24-3.59,2.07-.04,3.65,1.51,3.62,3.56Z"/>
    <path class="cls-1" d="M789.43,717.27c-.07,1.71-1.99,3.5-3.6,3.37-1.43-.11-3.12-2.05-3.09-3.54,.03-1.47,1.86-3.35,3.27-3.37,1.63-.02,3.49,1.9,3.42,3.54Z"/>
    <path class="cls-36" d="M846.19,754.66c-25.51,0-51.02,0-76.53,0-.68,0-1.36,.05-2.03-.02-1.88-.21-2.69-.99-2.55-2.88,.71-9.37,3.57-17.69,11.95-23.07,4.13-2.66,8.74-3.56,13.59-2.86,3.35,.48,4.17,1.56,4.18,4.94,.01,4.85,0,9.71,0,14.56,0,.9-.04,1.82,.12,2.7,.36,1.91,1.24,2.68,3.25,2.71,3.95,.07,7.9,.07,11.85,0,2.84-.05,3.73-.98,3.76-3.98,.05-5.53,.01-11.06,.02-16.59,0-.79-.05-1.6,.09-2.36,.22-1.2,1.07-1.67,2.25-1.48,1.07,.18,1.6,.93,1.43,1.94-.74,4.49-.21,9.01-.35,13.51-.06,1.91-.08,3.82,.39,5.72,.64,2.57,1.25,3.21,3.88,3.25,4.06,.06,8.13,.06,12.19,0,3.02-.04,4.34-1.32,4.37-4.32,.06-5.42,.02-10.84,.02-16.25,0-.79,0-1.58,.03-2.37,.04-.91,.49-1.48,1.47-1.49,.9-.01,1.58,.39,1.74,1.28,.16,.88,.15,1.79,.15,2.69,.01,5.42-.02,10.84,.02,16.25,.03,3.43,.79,4.18,4.2,4.22,3.39,.04,6.77,.05,10.16,0,2.85-.04,3.65-.63,4.01-3.44,.63-4.91,2.41-9.3,5.25-13.34,3.09-4.41,7.64-6.52,12.49-8.16,2.86-.97,3.11-1.17,3.18-4.27,.02-1.02,0-2.03,.02-3.05,.02-1.11,.29-2.14,1.66-2.03,1.18,.1,2.23,.62,2.3,2.03,.07,1.35,0,2.71,.08,4.06,.12,2.42,.32,2.68,2.63,3.14,9.66,1.92,15.91,9.31,17.72,18.6,1.26,6.45,1.19,6.47,7.79,6.46,1.58,0,3.16,0,4.74,0,4.61,0,5.12-.49,5.13-4.98,.01-5.98,0-11.97,0-17.95,0-3.61,0-7.22,0-10.84,0-.68-.04-1.36,.07-2.03,.18-1.08,.97-1.44,1.98-1.43,1,0,1.8,.35,1.94,1.46,.09,.67,.05,1.35,.05,2.03,0,11.29,0,22.58,0,33.86,0,3.67-.08,3.77-3.81,3.77-25.62,0-51.25,0-76.87,0Z"/>
    <path class="cls-6" d="M943.09,734.08c0,5.97,.03,11.94-.01,17.91-.02,2.28-.84,2.98-2.79,2.7-1.03-.15-1.66-.66-1.71-1.73-.04-.79-.03-1.58-.03-2.36,0-11.04,0-22.07,0-33.11,0-.79-.03-1.58,.04-2.36,.13-1.5,1.21-1.7,2.43-1.69,1.17,.01,1.96,.47,2.04,1.74,.05,.79,.03,1.58,.03,2.36,0,5.52,0,11.04,0,16.56h0Z"/>
    <path class="cls-5" d="M780.15,749.49c-2.14,0-4.29,.07-6.43-.02-2.33-.09-2.97-.94-2.64-3.24,1.02-7.22,6.08-12.94,13.11-14.75,.97-.25,2-.31,3.01-.36,1.63-.09,2.58,.65,2.58,2.36,0,4.51,.02,9.02,0,13.53,0,1.63-.85,2.49-2.53,2.47-2.37-.02-4.74,0-7.1,0h0Z"/>
    <path class="cls-5" d="M885.53,740.02c0-2.26-.07-4.51,.02-6.76,.09-2.09,1.18-2.76,3.15-2.11,5.7,1.86,11.54,9.36,11.92,15.28,.14,2.17-.67,3.26-2.81,3.33-3.15,.11-6.32,.1-9.47,0-2.08-.06-2.71-.78-2.78-2.98-.08-2.25-.02-4.51-.02-6.76h-.02Z"/>
    <path class="cls-5" d="M879.67,740.38c0,2.03,.05,4.05-.01,6.08-.07,2.47-.57,3.01-2.96,3.07-2.92,.07-5.85,.08-8.78,0-2.26-.06-3-.92-2.76-3.24,.62-5.95,3.94-10.21,8.85-13.25,5.03-3.11,5.94-2.49,5.66,3.29-.07,1.35,0,2.7,0,4.05h0Z"/>
  </g>
  <g>
    <path class="cls-10" d="M883.92,808.9c0,3.5,.05,6.99-.02,10.49-.05,2.69-.95,3.41-3.51,3.22-1.67-.13-2.45-.96-2.46-2.58,0-1.58-.01-3.16-.01-4.74,0-5.53,.01-11.05,0-16.58,0-3.74-.27-3.97-4.11-3.91-1.01,.01-2.03,.09-3.04,0-1.28-.1-2.08-.81-2.13-2.17-.05-1.43,.6-2.39,2-2.72,.54-.13,1.12-.07,1.68-.07,5.75,0,11.5,0,17.26,0,.67,0,1.37-.05,2.02,.11,1.28,.31,1.78,1.28,1.79,2.53,.01,1.34-.69,2.17-1.99,2.28-1.34,.11-2.7,0-4.06,.02-2.89,.04-3.38,.48-3.41,3.29-.04,3.61-.01,7.22-.01,10.83Z"/>
    <path class="cls-32" d="M905.67,790.48c3.16,.02,3.34,.06,4.35,3.1,2.86,8.55,5.65,17.13,8.47,25.7,.33,.99,.63,2.01-.47,2.73-1.11,.72-3.57,.29-4.31-.82-.94-1.42-1.4-3.06-1.87-4.7-.97-3.43-1.37-3.69-4.98-3.7q-6.67-.02-8.92,6.27c-1.06,2.96-1.45,3.31-3.55,3.22-1.85-.08-2.44-.82-1.94-2.61,.36-1.3,.91-2.55,1.32-3.84,2.36-7.3,4.66-14.62,7.07-21.9,1.13-3.4,1.39-3.49,4.83-3.46Z"/>
    <path class="cls-6" d="M925.58,790.48c1.72-.2,2.97,.62,3.78,2.41,.88,1.95,1.91,3.84,2.92,5.73,.52,.97,.83,2.27,2.19,2.33,1.47,.06,1.6-1.33,2.1-2.3,1.03-2,2.11-3.99,3.13-6,.48-.94,1.06-1.81,2.13-2.01,1.2-.22,2.66-.66,3.53,.37,.91,1.07-.25,2.06-.82,2.99-1.87,3.09-3.66,6.22-5.65,9.22-1.24,1.86-1.17,3.43,.03,5.27,1.9,2.93,3.6,5.99,5.39,8.99,.23,.39,.53,.74,.73,1.14,.49,.97,1.47,1.88,.68,3.08-.55,.83-2.93,.79-4.11,0-.88-.58-1.34-1.49-1.81-2.4-1.25-2.4-2.5-4.8-3.84-7.15-1.02-1.79-2.23-1.85-3.24-.06-1.33,2.35-2.48,4.81-3.66,7.24-.84,1.74-1.94,3.01-4.1,2.93-2.18-.08-2.73-.78-1.69-2.69,1.73-3.16,3.62-6.24,5.44-9.35,.4-.68,.8-1.36,1.22-2.02,.94-1.48,.95-2.86-.02-4.41-1.79-2.87-3.4-5.84-5.1-8.77-.34-.58-.75-1.13-1.06-1.73-1.19-2.27-.88-2.81,1.82-2.84Z"/>
    <path class="cls-5" d="M905.44,808.32c-.68,0-1.36,.08-2.03-.02-1.09-.17-1.6-.91-1.25-1.95,.8-2.35,1.6-4.69,2.01-7.15,.07-.43,.46-.76,.97-.81,.53-.05,.94,.28,1.06,.68,.83,2.57,1.63,5.15,2.34,7.76,.19,.72-.31,1.31-1.09,1.44-.66,.11-1.35,.1-2.02,.15,0-.03,0-.06,0-.09Z"/>
  </g>
</svg>